<?xml version="1.0" encoding="UTF-8" standalone="no"?>
<!DOCTYPE svg PUBLIC "-//W3C//DTD SVG 1.1//EN"
 "http://www.w3.org/Graphics/SVG/1.1/DTD/svg11.dtd">
<!-- Generated by graphviz version 2.43.0 (0)
 -->
<!-- Title: slick::sim::md_feed::MDFeed Pages: 1 -->
<svg width="114pt" height="98pt"
 viewBox="0.00 0.00 114.00 98.00" xmlns="http://www.w3.org/2000/svg" xmlns:xlink="http://www.w3.org/1999/xlink">
<g id="graph0" class="graph" transform="scale(1 1) rotate(0) translate(4 94)">
<title>slick::sim::md_feed::MDFeed</title>
<!-- Node1 -->
<g id="Node000001" class="node">
<title>Node1</title>
<g id="a_Node000001"><a xlink:title=" ">
<polygon fill="#999999" stroke="transparent" points="106,-90 0,-90 0,0 106,0 106,-90"/>
<text text-anchor="start" x="5" y="-78" font-family="Helvetica,sans-Serif" font-size="10.00">slick::sim::md_feed</text>
<text text-anchor="start" x="30" y="-67" font-family="Helvetica,sans-Serif" font-size="10.00">::MDFeed</text>
<text text-anchor="start" x="51" y="-52" font-family="Helvetica,sans-Serif" font-size="10.00"> </text>
<text text-anchor="start" x="11" y="-37" font-family="Helvetica,sans-Serif" font-size="10.00">+</text>
<text text-anchor="start" x="31" y="-37" font-family="Helvetica,sans-Serif" font-size="10.00">~MDFeed()</text>
<text text-anchor="start" x="11" y="-22" font-family="Helvetica,sans-Serif" font-size="10.00">+</text>
<text text-anchor="start" x="31" y="-22" font-family="Helvetica,sans-Serif" font-size="10.00">start()</text>
<text text-anchor="start" x="11" y="-7" font-family="Helvetica,sans-Serif" font-size="10.00">+</text>
<text text-anchor="start" x="31" y="-7" font-family="Helvetica,sans-Serif" font-size="10.00">stop()</text>
<polygon fill="#666666" stroke="#666666" points="0,-62 0,-62 106,-62 106,-62 0,-62"/>
<polygon fill="#666666" stroke="#666666" points="0,-47 0,-47 106,-47 106,-47 0,-47"/>
<polygon fill="none" stroke="#666666" points="0,0 0,-90 106,-90 106,0 0,0"/>
</a>
</g>
</g>
</g>
</svg>
