<?xml version="1.0" encoding="UTF-8" standalone="no"?>
<!DOCTYPE svg PUBLIC "-//W3C//DTD SVG 1.1//EN"
 "http://www.w3.org/Graphics/SVG/1.1/DTD/svg11.dtd">
<!-- Generated by graphviz version 2.43.0 (0)
 -->
<!-- Title: order_gateway/coinbase_ws_order_gateway.hpp Pages: 1 -->
<!--zoomable 445 -->

<svg id="main" version="1.1" xmlns="http://www.w3.org/2000/svg" xmlns:xlink="http://www.w3.org/1999/xlink" xml:space="preserve" onload="init(evt)">
<style type="text/css"><![CDATA[
.node, .edge {opacity: 0.7;}
.node.selected, .edge.selected {opacity: 1;}
.edge:hover path { stroke: red; }
.edge:hover polygon { stroke: red; fill: red; }
]]></style>

<defs>
  <circle id="rim" cx="0" cy="0" r="7"/>
  <circle id="rim2" cx="0" cy="0" r="3.5"/>
  <g id="zoomPlus">
    <use xlink:href="#rim" fill="#404040"><set attributeName="fill" to="#808080" begin="zoomplus.mouseover" end="zoomplus.mouseout"/></use>
    <path d="M-4,0h8M0,-4v8" fill="none" stroke="white" stroke-width="1.5" pointer-events="none"/>
  </g>
  <g id="zoomMin">
    <use xlink:href="#rim" fill="#404040"><set attributeName="fill" to="#808080" begin="zoomminus.mouseover" end="zoomminus.mouseout"/></use>
    <path d="M-4,0h8" fill="none" stroke="white" stroke-width="1.5" pointer-events="none"/>
  </g>
  <g id="arrowUp" transform="translate(30 24)">
    <use xlink:href="#rim"/>
    <path pointer-events="none" fill="none" stroke="white" stroke-width="1.5" d="M0,-3.0v7 M-2.5,-0.5L0,-3.0L2.5,-0.5"/>
  </g>
  <g id="arrowRight" transform="rotate(90) translate(36 -43)">
    <use xlink:href="#rim"/>
    <path pointer-events="none" fill="none" stroke="white" stroke-width="1.5" d="M0,-3.0v7 M-2.5,-0.5L0,-3.0L2.5,-0.5"/>
  </g>
  <g id="arrowDown" transform="rotate(180) translate(-30 -48)">
    <use xlink:href="#rim"/>
    <path pointer-events="none" fill="none" stroke="white" stroke-width="1.5" d="M0,-3.0v7 M-2.5,-0.5L0,-3.0L2.5,-0.5"/>
  </g>
  <g id="arrowLeft" transform="rotate(270) translate(-36 17)">
    <use xlink:href="#rim"/>
    <path pointer-events="none" fill="none" stroke="white" stroke-width="1.5" d="M0,-3.0v7 M-2.5,-0.5L0,-3.0L2.5,-0.5"/>
  </g>
  <g id="resetDef">
    <use xlink:href="#rim2" fill="#404040"><set attributeName="fill" to="#808080" begin="reset.mouseover" end="reset.mouseout"/></use>
  </g>
</defs>
<script type="application/ecmascript">
var viewWidth = 1457;
var viewHeight = 445;
var sectionId = 'dynsection-0';
</script>
<script type="application/ecmascript" xlink:href="svg.min.js"/>
<svg id="graph" class="graph">
<g id="viewport">
<title>order_gateway/coinbase_ws_order_gateway.hpp</title>
<!-- Node1 -->
<g id="Node000001" class="node">
<title>Node1</title>
<g id="a_Node000001"><a xlink:title=" ">
<polygon fill="#999999" stroke="#666666" points="1041,-437 905,-437 905,-407 1041,-407 1041,-437"/>
<text text-anchor="start" x="913" y="-425" font-family="Helvetica,sans-Serif" font-size="10.00">order_gateway/coinbase</text>
<text text-anchor="middle" x="973" y="-414" font-family="Helvetica,sans-Serif" font-size="10.00">_ws_order_gateway.hpp</text>
</a>
</g>
</g>
<!-- Node2 -->
<g id="Node000002" class="node">
<title>Node2</title>
<g id="a_Node000002"><a xlink:href="rest__ws__order__gateway_8hpp.html" target="_top" xlink:title=" ">
<polygon fill="white" stroke="#666666" points="592,-365.5 440,-365.5 440,-346.5 592,-346.5 592,-365.5"/>
<text text-anchor="middle" x="516" y="-353.5" font-family="Helvetica,sans-Serif" font-size="10.00">rest_ws_order_gateway.hpp</text>
</a>
</g>
</g>
<!-- Node1&#45;&gt;Node2 -->
<g id="edge1_Node000001_Node000002" class="edge">
<title>Node1&#45;&gt;Node2</title>
<g id="a_edge1_Node000001_Node000002"><a xlink:title=" ">
<path fill="none" stroke="#63b8ff" d="M904.58,-411.42C819.08,-399.44 673.46,-379.05 586.84,-366.92"/>
<polygon fill="#63b8ff" stroke="#63b8ff" points="587.22,-363.44 576.84,-365.52 586.25,-370.37 587.22,-363.44"/>
</a>
</g>
</g>
<!-- Node7 -->
<g id="Node000007" class="node">
<title>Node7</title>
<g id="a_Node000007"><a xlink:title=" ">
<polygon fill="#e0e0e0" stroke="#999999" points="801,-24.5 757,-24.5 757,-5.5 801,-5.5 801,-24.5"/>
<text text-anchor="middle" x="779" y="-12.5" font-family="Helvetica,sans-Serif" font-size="10.00">string</text>
</a>
</g>
</g>
<!-- Node1&#45;&gt;Node7 -->
<g id="edge44_Node000001_Node000007" class="edge">
<title>Node1&#45;&gt;Node7</title>
<g id="a_edge44_Node000001_Node000007"><a xlink:title=" ">
<path fill="none" stroke="#63b8ff" d="M973,-406.81C973,-383.7 973,-336.49 973,-296.5 973,-296.5 973,-296.5 973,-129.5 973,-55.45 866.4,-28.82 811.24,-19.99"/>
<polygon fill="#63b8ff" stroke="#63b8ff" points="811.66,-16.52 801.25,-18.5 810.63,-23.44 811.66,-16.52"/>
</a>
</g>
</g>
<!-- Node8 -->
<g id="Node000008" class="node">
<title>Node8</title>
<g id="a_Node000008"><a xlink:title=" ">
<polygon fill="#e0e0e0" stroke="#999999" points="50,-24.5 0,-24.5 0,-5.5 50,-5.5 50,-24.5"/>
<text text-anchor="middle" x="25" y="-12.5" font-family="Helvetica,sans-Serif" font-size="10.00">format</text>
</a>
</g>
</g>
<!-- Node1&#45;&gt;Node8 -->
<g id="edge46_Node000001_Node000008" class="edge">
<title>Node1&#45;&gt;Node8</title>
<g id="a_edge46_Node000001_Node000008"><a xlink:title=" ">
<path fill="none" stroke="#63b8ff" d="M904.87,-419.31C686.01,-413 15,-386.33 15,-296.5 15,-296.5 15,-296.5 15,-129.5 15,-95.98 19.38,-57.1 22.34,-34.65"/>
<polygon fill="#63b8ff" stroke="#63b8ff" points="25.84,-34.9 23.73,-24.52 18.91,-33.95 25.84,-34.9"/>
</a>
</g>
</g>
<!-- Node11 -->
<g id="Node000011" class="node">
<title>Node11</title>
<g id="a_Node000011"><a xlink:title=" ">
<polygon fill="#e0e0e0" stroke="#999999" points="476,-24.5 426,-24.5 426,-5.5 476,-5.5 476,-24.5"/>
<text text-anchor="middle" x="451" y="-12.5" font-family="Helvetica,sans-Serif" font-size="10.00">chrono</text>
</a>
</g>
</g>
<!-- Node1&#45;&gt;Node11 -->
<g id="edge47_Node000001_Node000011" class="edge">
<title>Node1&#45;&gt;Node11</title>
<g id="a_edge47_Node000001_Node000011"><a xlink:title=" ">
<path fill="none" stroke="#63b8ff" d="M904.96,-421.27C747.61,-420.13 367.33,-406.73 306,-305 248.31,-209.31 308.79,-148.64 384,-66 396.82,-51.91 414.11,-39.13 427.91,-30.01"/>
<polygon fill="#63b8ff" stroke="#63b8ff" points="429.86,-32.92 436.4,-24.57 426.09,-27.02 429.86,-32.92"/>
</a>
</g>
</g>
<!-- Node13 -->
<g id="Node000013" class="node">
<title>Node13</title>
<g id="a_Node000013"><a xlink:title=" ">
<polygon fill="#e0e0e0" stroke="#999999" points="713,-85 603,-85 603,-66 713,-66 713,-85"/>
<text text-anchor="middle" x="658" y="-73" font-family="Helvetica,sans-Serif" font-size="10.00">nlohmann/json.hpp</text>
</a>
</g>
</g>
<!-- Node1&#45;&gt;Node13 -->
<g id="edge40_Node000001_Node000013" class="edge">
<title>Node1&#45;&gt;Node13</title>
<g id="a_edge40_Node000001_Node000013"><a xlink:title=" ">
<path fill="none" stroke="#63b8ff" d="M968.95,-406.73C956.71,-363.78 920.62,-238.2 915,-231 856.06,-155.52 749.13,-108.74 693.6,-88.39"/>
<polygon fill="#63b8ff" stroke="#63b8ff" points="694.77,-85.09 684.18,-85.01 692.41,-91.68 694.77,-85.09"/>
</a>
</g>
</g>
<!-- Node21 -->
<g id="Node000021" class="node">
<title>Node21</title>
<g id="a_Node000021"><a xlink:title=" ">
<polygon fill="#e0e0e0" stroke="#999999" points="906.5,-250 813.5,-250 813.5,-231 906.5,-231 906.5,-250"/>
<text text-anchor="middle" x="860" y="-238" font-family="Helvetica,sans-Serif" font-size="10.00">unordered_map</text>
</a>
</g>
</g>
<!-- Node1&#45;&gt;Node21 -->
<g id="edge43_Node000001_Node000021" class="edge">
<title>Node1&#45;&gt;Node21</title>
<g id="a_edge43_Node000001_Node000021"><a xlink:title=" ">
<path fill="none" stroke="#63b8ff" d="M955,-406.62C944.16,-397.3 930.64,-384.43 921,-371 895.13,-334.96 875.68,-286.22 866.27,-260.01"/>
<polygon fill="#63b8ff" stroke="#63b8ff" points="869.47,-258.55 862.87,-250.26 862.86,-260.86 869.47,-258.55"/>
</a>
</g>
</g>
<!-- Node25 -->
<g id="Node000025" class="node">
<title>Node25</title>
<g id="a_Node000025"><a xlink:title=" ">
<polygon fill="#e0e0e0" stroke="#999999" points="1081,-365.5 1001,-365.5 1001,-346.5 1081,-346.5 1081,-365.5"/>
<text text-anchor="middle" x="1041" y="-353.5" font-family="Helvetica,sans-Serif" font-size="10.00">jwt&#45;cpp/jwt.h</text>
</a>
</g>
</g>
<!-- Node1&#45;&gt;Node25 -->
<g id="edge41_Node000001_Node000025" class="edge">
<title>Node1&#45;&gt;Node25</title>
<g id="a_edge41_Node000001_Node000025"><a xlink:title=" ">
<path fill="none" stroke="#63b8ff" d="M988.09,-406.8C998.8,-396.72 1013.17,-383.19 1024.23,-372.78"/>
<polygon fill="#63b8ff" stroke="#63b8ff" points="1026.72,-375.25 1031.6,-365.84 1021.92,-370.15 1026.72,-375.25"/>
</a>
</g>
</g>
<!-- Node26 -->
<g id="Node000026" class="node">
<title>Node26</title>
<g id="a_Node000026"><a xlink:title=" ">
<polygon fill="#e0e0e0" stroke="#999999" points="1232.5,-371 1099.5,-371 1099.5,-341 1232.5,-341 1232.5,-371"/>
<text text-anchor="start" x="1107.5" y="-359" font-family="Helvetica,sans-Serif" font-size="10.00">jwt&#45;cpp/traits/nlohmann</text>
<text text-anchor="middle" x="1166" y="-348" font-family="Helvetica,sans-Serif" font-size="10.00">&#45;json/traits.h</text>
</a>
</g>
</g>
<!-- Node1&#45;&gt;Node26 -->
<g id="edge42_Node000001_Node000026" class="edge">
<title>Node1&#45;&gt;Node26</title>
<g id="a_edge42_Node000001_Node000026"><a xlink:title=" ">
<path fill="none" stroke="#63b8ff" d="M1015.35,-406.95C1044.39,-397.33 1083.1,-384.49 1114.01,-374.24"/>
<polygon fill="#63b8ff" stroke="#63b8ff" points="1115.35,-377.48 1123.74,-371.01 1113.15,-370.84 1115.35,-377.48"/>
</a>
</g>
</g>
<!-- Node27 -->
<g id="Node000027" class="node">
<title>Node27</title>
<g id="a_Node000027"><a xlink:title=" ">
<polygon fill="#e0e0e0" stroke="#999999" points="1301,-365.5 1251,-365.5 1251,-346.5 1301,-346.5 1301,-365.5"/>
<text text-anchor="middle" x="1276" y="-353.5" font-family="Helvetica,sans-Serif" font-size="10.00">atomic</text>
</a>
</g>
</g>
<!-- Node1&#45;&gt;Node27 -->
<g id="edge45_Node000001_Node000027" class="edge">
<title>Node1&#45;&gt;Node27</title>
<g id="a_edge45_Node000001_Node000027"><a xlink:title=" ">
<path fill="none" stroke="#63b8ff" d="M1041.07,-412.32C1096.01,-404.38 1174.92,-390.81 1242,-371 1243.88,-370.44 1245.8,-369.82 1247.73,-369.15"/>
<polygon fill="#63b8ff" stroke="#63b8ff" points="1249.08,-372.38 1257.19,-365.56 1246.6,-365.84 1249.08,-372.38"/>
</a>
</g>
</g>
<!-- Node28 -->
<g id="Node000028" class="node">
<title>Node28</title>
<g id="a_Node000028"><a xlink:title=" ">
<polygon fill="#e0e0e0" stroke="#999999" points="1375,-365.5 1319,-365.5 1319,-346.5 1375,-346.5 1375,-365.5"/>
<text text-anchor="middle" x="1347" y="-353.5" font-family="Helvetica,sans-Serif" font-size="10.00">iomanip</text>
</a>
</g>
</g>
<!-- Node1&#45;&gt;Node28 -->
<g id="edge48_Node000001_Node000028" class="edge">
<title>Node1&#45;&gt;Node28</title>
<g id="a_edge48_Node000001_Node000028"><a xlink:title=" ">
<path fill="none" stroke="#63b8ff" d="M1041.31,-415.2C1110.01,-408.36 1218.56,-394.79 1310,-371 1312.44,-370.36 1314.95,-369.62 1317.44,-368.82"/>
<polygon fill="#63b8ff" stroke="#63b8ff" points="1318.62,-372.11 1326.9,-365.5 1316.3,-365.51 1318.62,-372.11"/>
</a>
</g>
</g>
<!-- Node29 -->
<g id="Node000029" class="node">
<title>Node29</title>
<g id="a_Node000029"><a xlink:title=" ">
<polygon fill="#e0e0e0" stroke="#999999" points="1449,-365.5 1393,-365.5 1393,-346.5 1449,-346.5 1449,-365.5"/>
<text text-anchor="middle" x="1421" y="-353.5" font-family="Helvetica,sans-Serif" font-size="10.00">sstream</text>
</a>
</g>
</g>
<!-- Node1&#45;&gt;Node29 -->
<g id="edge49_Node000001_Node000029" class="edge">
<title>Node1&#45;&gt;Node29</title>
<g id="a_edge49_Node000001_Node000029"><a xlink:title=" ">
<path fill="none" stroke="#63b8ff" d="M1041.18,-417.73C1123.46,-412.64 1265.52,-400.17 1384,-371 1386.45,-370.4 1388.96,-369.68 1391.46,-368.89"/>
<polygon fill="#63b8ff" stroke="#63b8ff" points="1392.63,-372.19 1400.92,-365.6 1390.33,-365.58 1392.63,-372.19"/>
</a>
</g>
</g>
<!-- Node3 -->
<g id="Node000003" class="node">
<title>Node3</title>
<g id="a_Node000003"><a xlink:href="order__gateway_8hpp.html" target="_top" xlink:title=" ">
<polygon fill="white" stroke="#666666" points="618.5,-305 509.5,-305 509.5,-286 618.5,-286 618.5,-305"/>
<text text-anchor="middle" x="564" y="-293" font-family="Helvetica,sans-Serif" font-size="10.00">order_gateway.hpp</text>
</a>
</g>
</g>
<!-- Node2&#45;&gt;Node3 -->
<g id="edge2_Node000002_Node000003" class="edge">
<title>Node2&#45;&gt;Node3</title>
<g id="a_edge2_Node000002_Node000003"><a xlink:title=" ">
<path fill="none" stroke="#63b8ff" d="M523.08,-346.37C530.24,-337.64 541.49,-323.93 550.39,-313.09"/>
<polygon fill="#63b8ff" stroke="#63b8ff" points="553.25,-315.12 556.89,-305.17 547.84,-310.68 553.25,-315.12"/>
</a>
</g>
</g>
<!-- Node2&#45;&gt;Node7 -->
<g id="edge37_Node000002_Node000007" class="edge">
<title>Node2&#45;&gt;Node7</title>
<g id="a_edge37_Node000002_Node000007"><a xlink:title=" ">
<path fill="none" stroke="#63b8ff" d="M545.69,-346.41C591.03,-332.18 678.54,-300.19 738,-250 797.4,-199.86 793.18,-162.68 796,-85 796.31,-76.56 797.38,-74.33 796,-66 794.2,-55.09 790.32,-43.36 786.72,-34.01"/>
<polygon fill="#63b8ff" stroke="#63b8ff" points="789.92,-32.57 782.91,-24.63 783.43,-35.21 789.92,-32.57"/>
</a>
</g>
</g>
<!-- Node12 -->
<g id="Node000012" class="node">
<title>Node12</title>
<g id="a_Node000012"><a xlink:title=" ">
<polygon fill="#e0e0e0" stroke="#999999" points="118,-24.5 68,-24.5 68,-5.5 118,-5.5 118,-24.5"/>
<text text-anchor="middle" x="93" y="-12.5" font-family="Helvetica,sans-Serif" font-size="10.00">cstdint</text>
</a>
</g>
</g>
<!-- Node2&#45;&gt;Node12 -->
<g id="edge39_Node000002_Node000012" class="edge">
<title>Node2&#45;&gt;Node12</title>
<g id="a_edge39_Node000002_Node000012"><a xlink:title=" ">
<path fill="none" stroke="#63b8ff" d="M467.66,-346.45C356.27,-325.38 91,-266.77 91,-186.5 91,-186.5 91,-186.5 91,-129.5 91,-96.1 91.88,-57.19 92.47,-34.69"/>
<polygon fill="#63b8ff" stroke="#63b8ff" points="95.97,-34.63 92.75,-24.54 88.97,-34.44 95.97,-34.63"/>
</a>
</g>
</g>
<!-- Node23 -->
<g id="Node000023" class="node">
<title>Node23</title>
<g id="a_Node000023"><a xlink:title=" ">
<polygon fill="#e0e0e0" stroke="#999999" points="425,-305 315,-305 315,-286 425,-286 425,-305"/>
<text text-anchor="middle" x="370" y="-293" font-family="Helvetica,sans-Serif" font-size="10.00">uwebsockets/App.h</text>
</a>
</g>
</g>
<!-- Node2&#45;&gt;Node23 -->
<g id="edge36_Node000002_Node000023" class="edge">
<title>Node2&#45;&gt;Node23</title>
<g id="a_edge36_Node000002_Node000023"><a xlink:title=" ">
<path fill="none" stroke="#63b8ff" d="M494.77,-346.49C470.01,-336.57 428.88,-320.09 400.65,-308.78"/>
<polygon fill="#63b8ff" stroke="#63b8ff" points="401.84,-305.49 391.26,-305.02 399.24,-311.99 401.84,-305.49"/>
</a>
</g>
</g>
<!-- Node24 -->
<g id="Node000024" class="node">
<title>Node24</title>
<g id="a_Node000024"><a xlink:title=" ">
<polygon fill="#e0e0e0" stroke="#999999" points="491,-305 443,-305 443,-286 491,-286 491,-305"/>
<text text-anchor="middle" x="467" y="-293" font-family="Helvetica,sans-Serif" font-size="10.00">thread</text>
</a>
</g>
</g>
<!-- Node2&#45;&gt;Node24 -->
<g id="edge38_Node000002_Node000024" class="edge">
<title>Node2&#45;&gt;Node24</title>
<g id="a_edge38_Node000002_Node000024"><a xlink:title=" ">
<path fill="none" stroke="#63b8ff" d="M508.77,-346.37C501.46,-337.64 489.98,-323.93 480.9,-313.09"/>
<polygon fill="#63b8ff" stroke="#63b8ff" points="483.36,-310.59 474.26,-305.17 478,-315.08 483.36,-310.59"/>
</a>
</g>
</g>
<!-- Node4 -->
<g id="Node000004" class="node">
<title>Node4</title>
<g id="a_Node000004"><a xlink:title=" ">
<polygon fill="#e0e0e0" stroke="#999999" points="545.5,-250 464.5,-250 464.5,-231 545.5,-231 545.5,-250"/>
<text text-anchor="middle" x="505" y="-238" font-family="Helvetica,sans-Serif" font-size="10.00">slick/queue.h</text>
</a>
</g>
</g>
<!-- Node3&#45;&gt;Node4 -->
<g id="edge3_Node000003_Node000004" class="edge">
<title>Node3&#45;&gt;Node4</title>
<g id="a_edge3_Node000003_Node000004"><a xlink:title=" ">
<path fill="none" stroke="#63b8ff" d="M554.52,-285.98C545.8,-278.15 532.66,-266.34 522.1,-256.86"/>
<polygon fill="#63b8ff" stroke="#63b8ff" points="524.43,-254.25 514.65,-250.17 519.75,-259.46 524.43,-254.25"/>
</a>
</g>
</g>
<!-- Node5 -->
<g id="Node000005" class="node">
<title>Node5</title>
<g id="a_Node000005"><a xlink:href="message__parser_8hpp.html" target="_top" xlink:title=" ">
<polygon fill="white" stroke="#666666" points="680.5,-250 563.5,-250 563.5,-231 680.5,-231 680.5,-250"/>
<text text-anchor="middle" x="622" y="-238" font-family="Helvetica,sans-Serif" font-size="10.00">message_parser.hpp</text>
</a>
</g>
</g>
<!-- Node3&#45;&gt;Node5 -->
<g id="edge4_Node000003_Node000005" class="edge">
<title>Node3&#45;&gt;Node5</title>
<g id="a_edge4_Node000003_Node000005"><a xlink:title=" ">
<path fill="none" stroke="#63b8ff" d="M573.32,-285.98C581.81,-278.23 594.56,-266.58 604.88,-257.14"/>
<polygon fill="#63b8ff" stroke="#63b8ff" points="607.49,-259.5 612.51,-250.17 602.77,-254.33 607.49,-259.5"/>
</a>
</g>
</g>
<!-- Node6 -->
<g id="Node000006" class="node">
<title>Node6</title>
<g id="a_Node000006"><a xlink:href="messages_8hpp.html" target="_top" xlink:title=" ">
<polygon fill="white" stroke="#666666" points="459.5,-195 326.5,-195 326.5,-176 459.5,-176 459.5,-195"/>
<text text-anchor="middle" x="393" y="-183" font-family="Helvetica,sans-Serif" font-size="10.00">common/messages.hpp</text>
</a>
</g>
</g>
<!-- Node3&#45;&gt;Node6 -->
<g id="edge35_Node000003_Node000006" class="edge">
<title>Node3&#45;&gt;Node6</title>
<g id="a_edge35_Node000003_Node000006"><a xlink:title=" ">
<path fill="none" stroke="#63b8ff" d="M510.16,-285.99C454.4,-276.63 374.14,-261.41 365,-250 353.65,-235.83 365.37,-216.33 376.93,-202.69"/>
<polygon fill="#63b8ff" stroke="#63b8ff" points="379.74,-204.81 383.9,-195.06 374.57,-200.09 379.74,-204.81"/>
</a>
</g>
</g>
<!-- Node3&#45;&gt;Node7 -->
<g id="edge32_Node000003_Node000007" class="edge">
<title>Node3&#45;&gt;Node7</title>
<g id="a_edge32_Node000003_Node000007"><a xlink:title=" ">
<path fill="none" stroke="#63b8ff" d="M616.27,-285.95C645.77,-279.41 682.35,-268.3 711,-250 738.59,-232.37 746.75,-224.94 760,-195 783.99,-140.81 782.86,-68.68 780.67,-34.92"/>
<polygon fill="#63b8ff" stroke="#63b8ff" points="784.14,-34.38 779.89,-24.68 777.16,-34.91 784.14,-34.38"/>
</a>
</g>
</g>
<!-- Node3&#45;&gt;Node8 -->
<g id="edge34_Node000003_Node000008" class="edge">
<title>Node3&#45;&gt;Node8</title>
<g id="a_edge34_Node000003_Node000008"><a xlink:title=" ">
<path fill="none" stroke="#63b8ff" d="M513.78,-285.92C461.92,-276.67 384.78,-261.7 357,-250 221.78,-193.07 87.07,-74.12 41.35,-31.56"/>
<polygon fill="#63b8ff" stroke="#63b8ff" points="43.55,-28.83 33.87,-24.53 38.76,-33.93 43.55,-28.83"/>
</a>
</g>
</g>
<!-- Node18 -->
<g id="Node000018" class="node">
<title>Node18</title>
<g id="a_Node000018"><a xlink:title=" ">
<polygon fill="#e0e0e0" stroke="#999999" points="524.5,-195 477.5,-195 477.5,-176 524.5,-176 524.5,-195"/>
<text text-anchor="middle" x="501" y="-183" font-family="Helvetica,sans-Serif" font-size="10.00">vector</text>
</a>
</g>
</g>
<!-- Node3&#45;&gt;Node18 -->
<g id="edge33_Node000003_Node000018" class="edge">
<title>Node3&#45;&gt;Node18</title>
<g id="a_edge33_Node000003_Node000018"><a xlink:title=" ">
<path fill="none" stroke="#63b8ff" d="M512.77,-285.99C458.94,-276.53 380.83,-261.12 372,-250 366.75,-243.39 367.1,-237.88 372,-231 377.77,-222.91 431.35,-206.32 467.62,-195.84"/>
<polygon fill="#63b8ff" stroke="#63b8ff" points="468.69,-199.17 477.34,-193.06 466.76,-192.44 468.69,-199.17"/>
</a>
</g>
</g>
<!-- Node19 -->
<g id="Node000019" class="node">
<title>Node19</title>
<g id="a_Node000019"><a xlink:title=" ">
<polygon fill="#e0e0e0" stroke="#999999" points="751,-195 693,-195 693,-176 751,-176 751,-195"/>
<text text-anchor="middle" x="722" y="-183" font-family="Helvetica,sans-Serif" font-size="10.00">memory</text>
</a>
</g>
</g>
<!-- Node3&#45;&gt;Node19 -->
<g id="edge29_Node000003_Node000019" class="edge">
<title>Node3&#45;&gt;Node19</title>
<g id="a_edge29_Node000003_Node000019"><a xlink:title=" ">
<path fill="none" stroke="#63b8ff" d="M613.17,-285.94C638.19,-279.52 667.73,-268.54 689,-250 702.73,-238.03 711.56,-218.94 716.6,-204.82"/>
<polygon fill="#63b8ff" stroke="#63b8ff" points="719.97,-205.77 719.73,-195.18 713.31,-203.61 719.97,-205.77"/>
</a>
</g>
</g>
<!-- Node3&#45;&gt;Node21 -->
<g id="edge30_Node000003_Node000021" class="edge">
<title>Node3&#45;&gt;Node21</title>
<g id="a_edge30_Node000003_Node000021"><a xlink:title=" ">
<path fill="none" stroke="#63b8ff" d="M611.56,-285.98C663.71,-276.65 747.37,-261.67 803,-251.71"/>
<polygon fill="#63b8ff" stroke="#63b8ff" points="803.82,-255.11 813.05,-249.91 802.59,-248.22 803.82,-255.11"/>
</a>
</g>
</g>
<!-- Node22 -->
<g id="Node000022" class="node">
<title>Node22</title>
<g id="a_Node000022"><a xlink:title=" ">
<polygon fill="#e0e0e0" stroke="#999999" points="446.5,-250 381.5,-250 381.5,-231 446.5,-231 446.5,-250"/>
<text text-anchor="middle" x="414" y="-238" font-family="Helvetica,sans-Serif" font-size="10.00">functional</text>
</a>
</g>
</g>
<!-- Node3&#45;&gt;Node22 -->
<g id="edge31_Node000003_Node000022" class="edge">
<title>Node3&#45;&gt;Node22</title>
<g id="a_edge31_Node000003_Node000022"><a xlink:title=" ">
<path fill="none" stroke="#63b8ff" d="M539.9,-285.98C515.12,-277.23 476.3,-263.51 448.31,-253.62"/>
<polygon fill="#63b8ff" stroke="#63b8ff" points="449.13,-250.2 438.54,-250.17 446.8,-256.8 449.13,-250.2"/>
</a>
</g>
</g>
<!-- Node5&#45;&gt;Node6 -->
<g id="edge5_Node000005_Node000006" class="edge">
<title>Node5&#45;&gt;Node6</title>
<g id="a_edge5_Node000005_Node000006"><a xlink:title=" ">
<path fill="none" stroke="#63b8ff" d="M585.21,-230.98C545.76,-221.86 483.02,-207.33 440.02,-197.38"/>
<polygon fill="#63b8ff" stroke="#63b8ff" points="440.61,-193.93 430.08,-195.08 439.03,-200.75 440.61,-193.93"/>
</a>
</g>
</g>
<!-- Node5&#45;&gt;Node7 -->
<g id="edge27_Node000005_Node000007" class="edge">
<title>Node5&#45;&gt;Node7</title>
<g id="a_edge27_Node000005_Node000007"><a xlink:title=" ">
<path fill="none" stroke="#63b8ff" d="M630.45,-230.7C651.94,-207.99 709.59,-145.03 747,-85 757.13,-68.75 766.05,-48.76 771.88,-34.49"/>
<polygon fill="#63b8ff" stroke="#63b8ff" points="775.27,-35.44 775.71,-24.85 768.77,-32.85 775.27,-35.44"/>
</a>
</g>
</g>
<!-- Node9 -->
<g id="Node000009" class="node">
<title>Node9</title>
<g id="a_Node000009"><a xlink:href="common_2order_8hpp.html" target="_top" xlink:title=" ">
<polygon fill="white" stroke="#666666" points="472,-140 364,-140 364,-121 472,-121 472,-140"/>
<text text-anchor="middle" x="418" y="-128" font-family="Helvetica,sans-Serif" font-size="10.00">common/order.hpp</text>
</a>
</g>
</g>
<!-- Node5&#45;&gt;Node9 -->
<g id="edge24_Node000005_Node000009" class="edge">
<title>Node5&#45;&gt;Node9</title>
<g id="a_edge24_Node000005_Node000009"><a xlink:title=" ">
<path fill="none" stroke="#63b8ff" d="M611.87,-230.98C595.92,-217.85 563.57,-192.48 533,-176 508.21,-162.64 478.54,-151.26 455.54,-143.35"/>
<polygon fill="#63b8ff" stroke="#63b8ff" points="456.4,-139.95 445.81,-140.08 454.17,-146.58 456.4,-139.95"/>
</a>
</g>
</g>
<!-- Node5&#45;&gt;Node18 -->
<g id="edge25_Node000005_Node000018" class="edge">
<title>Node5&#45;&gt;Node18</title>
<g id="a_edge25_Node000005_Node000018"><a xlink:title=" ">
<path fill="none" stroke="#63b8ff" d="M602.56,-230.98C583.01,-222.42 552.62,-209.11 530.18,-199.28"/>
<polygon fill="#63b8ff" stroke="#63b8ff" points="531.36,-195.98 520.79,-195.17 528.55,-202.39 531.36,-195.98"/>
</a>
</g>
</g>
<!-- Node5&#45;&gt;Node19 -->
<g id="edge26_Node000005_Node000019" class="edge">
<title>Node5&#45;&gt;Node19</title>
<g id="a_edge26_Node000005_Node000019"><a xlink:title=" ">
<path fill="none" stroke="#63b8ff" d="M638.07,-230.98C653.86,-222.61 678.22,-209.7 696.63,-199.95"/>
<polygon fill="#63b8ff" stroke="#63b8ff" points="698.44,-202.95 705.64,-195.17 695.17,-196.76 698.44,-202.95"/>
</a>
</g>
</g>
<!-- Node20 -->
<g id="Node000020" class="node">
<title>Node20</title>
<g id="a_Node000020"><a xlink:title=" ">
<polygon fill="#e0e0e0" stroke="#999999" points="637,-195 581,-195 581,-176 637,-176 637,-195"/>
<text text-anchor="middle" x="609" y="-183" font-family="Helvetica,sans-Serif" font-size="10.00">optional</text>
</a>
</g>
</g>
<!-- Node5&#45;&gt;Node20 -->
<g id="edge28_Node000005_Node000020" class="edge">
<title>Node5&#45;&gt;Node20</title>
<g id="a_edge28_Node000005_Node000020"><a xlink:title=" ">
<path fill="none" stroke="#63b8ff" d="M619.85,-230.75C618.13,-223.72 615.65,-213.62 613.5,-204.84"/>
<polygon fill="#63b8ff" stroke="#63b8ff" points="616.89,-203.97 611.11,-195.09 610.09,-205.63 616.89,-203.97"/>
</a>
</g>
</g>
<!-- Node6&#45;&gt;Node7 -->
<g id="edge6_Node000006_Node000007" class="edge">
<title>Node6&#45;&gt;Node7</title>
<g id="a_edge6_Node000006_Node000007"><a xlink:title=" ">
<path fill="none" stroke="#63b8ff" d="M459.65,-175.98C529.78,-164.48 641.02,-138.87 722,-85 742.14,-71.6 758.87,-48.98 768.88,-33.31"/>
<polygon fill="#63b8ff" stroke="#63b8ff" points="771.98,-34.95 774.22,-24.59 766.01,-31.29 771.98,-34.95"/>
</a>
</g>
</g>
<!-- Node6&#45;&gt;Node8 -->
<g id="edge7_Node000006_Node000008" class="edge">
<title>Node6&#45;&gt;Node8</title>
<g id="a_edge7_Node000006_Node000008"><a xlink:title=" ">
<path fill="none" stroke="#63b8ff" d="M369.38,-175.95C325.34,-159.78 227.98,-122.91 149,-85 112.76,-67.61 72.35,-44.36 47.8,-29.78"/>
<polygon fill="#63b8ff" stroke="#63b8ff" points="49.59,-26.77 39.21,-24.65 46,-32.78 49.59,-26.77"/>
</a>
</g>
</g>
<!-- Node6&#45;&gt;Node9 -->
<g id="edge8_Node000006_Node000009" class="edge">
<title>Node6&#45;&gt;Node9</title>
<g id="a_edge8_Node000006_Node000009"><a xlink:title=" ">
<path fill="none" stroke="#63b8ff" d="M397.13,-175.75C400.51,-168.57 405.42,-158.18 409.62,-149.27"/>
<polygon fill="#63b8ff" stroke="#63b8ff" points="412.85,-150.63 413.95,-140.09 406.52,-147.64 412.85,-150.63"/>
</a>
</g>
</g>
<!-- Node9&#45;&gt;Node7 -->
<g id="edge9_Node000009_Node000007" class="edge">
<title>Node9&#45;&gt;Node7</title>
<g id="a_edge9_Node000009_Node000007"><a xlink:title=" ">
<path fill="none" stroke="#63b8ff" d="M439.75,-121C472.8,-108.23 537.77,-83.71 594,-66 647.23,-49.24 710.12,-32.98 747.17,-23.75"/>
<polygon fill="#63b8ff" stroke="#63b8ff" points="748.04,-27.15 756.9,-21.35 746.35,-20.35 748.04,-27.15"/>
</a>
</g>
</g>
<!-- Node10 -->
<g id="Node000010" class="node">
<title>Node10</title>
<g id="a_Node000010"><a xlink:title=" ">
<polygon fill="#e0e0e0" stroke="#999999" points="405.5,-24.5 332.5,-24.5 332.5,-5.5 405.5,-5.5 405.5,-24.5"/>
<text text-anchor="middle" x="369" y="-12.5" font-family="Helvetica,sans-Serif" font-size="10.00">string_view</text>
</a>
</g>
</g>
<!-- Node9&#45;&gt;Node10 -->
<g id="edge10_Node000009_Node000010" class="edge">
<title>Node9&#45;&gt;Node10</title>
<g id="a_edge10_Node000009_Node000010"><a xlink:title=" ">
<path fill="none" stroke="#63b8ff" d="M409.4,-120.74C401.6,-112.28 390.37,-98.77 384,-85 376.61,-69.02 372.79,-49.26 370.86,-34.98"/>
<polygon fill="#63b8ff" stroke="#63b8ff" points="374.32,-34.42 369.69,-24.89 367.37,-35.22 374.32,-34.42"/>
</a>
</g>
</g>
<!-- Node9&#45;&gt;Node11 -->
<g id="edge11_Node000009_Node000011" class="edge">
<title>Node9&#45;&gt;Node11</title>
<g id="a_edge11_Node000009_Node000011"><a xlink:title=" ">
<path fill="none" stroke="#63b8ff" d="M462.76,-120.92C482.95,-114.58 504.92,-103.67 517,-85 531.07,-63.25 503.37,-42.35 479.66,-29.36"/>
<polygon fill="#63b8ff" stroke="#63b8ff" points="481.02,-26.12 470.53,-24.62 477.79,-32.33 481.02,-26.12"/>
</a>
</g>
</g>
<!-- Node9&#45;&gt;Node12 -->
<g id="edge12_Node000009_Node000012" class="edge">
<title>Node9&#45;&gt;Node12</title>
<g id="a_edge12_Node000009_Node000012"><a xlink:title=" ">
<path fill="none" stroke="#63b8ff" d="M363.93,-125.99C315.57,-121.27 243.64,-110.32 186,-85 156.26,-71.94 127.02,-47.88 109.49,-31.91"/>
<polygon fill="#63b8ff" stroke="#63b8ff" points="111.57,-29.07 101.87,-24.8 106.8,-34.18 111.57,-29.07"/>
</a>
</g>
</g>
<!-- Node9&#45;&gt;Node13 -->
<g id="edge13_Node000009_Node000013" class="edge">
<title>Node9&#45;&gt;Node13</title>
<g id="a_edge13_Node000009_Node000013"><a xlink:title=" ">
<path fill="none" stroke="#63b8ff" d="M456.56,-120.98C498.07,-111.82 564.21,-97.21 609.29,-87.26"/>
<polygon fill="#63b8ff" stroke="#63b8ff" points="610.13,-90.66 619.14,-85.08 608.62,-83.82 610.13,-90.66"/>
</a>
</g>
</g>
<!-- Node14 -->
<g id="Node000014" class="node">
<title>Node14</title>
<g id="a_Node000014"><a xlink:title=" ">
<polygon fill="#e0e0e0" stroke="#999999" points="314,-24.5 270,-24.5 270,-5.5 314,-5.5 314,-24.5"/>
<text text-anchor="middle" x="292" y="-12.5" font-family="Helvetica,sans-Serif" font-size="10.00">limits</text>
</a>
</g>
</g>
<!-- Node9&#45;&gt;Node14 -->
<g id="edge14_Node000009_Node000014" class="edge">
<title>Node9&#45;&gt;Node14</title>
<g id="a_edge14_Node000009_Node000014"><a xlink:title=" ">
<path fill="none" stroke="#63b8ff" d="M408.53,-120.97C387.37,-101.91 336,-55.63 309.09,-31.39"/>
<polygon fill="#63b8ff" stroke="#63b8ff" points="311.35,-28.72 301.58,-24.63 306.67,-33.92 311.35,-28.72"/>
</a>
</g>
</g>
<!-- Node15 -->
<g id="Node000015" class="node">
<title>Node15</title>
<g id="a_Node000015"><a xlink:href="types_8hpp.html" target="_top" xlink:title=" ">
<polygon fill="white" stroke="#666666" points="260.5,-85 195.5,-85 195.5,-66 260.5,-66 260.5,-85"/>
<text text-anchor="middle" x="228" y="-73" font-family="Helvetica,sans-Serif" font-size="10.00">types.hpp</text>
</a>
</g>
</g>
<!-- Node9&#45;&gt;Node15 -->
<g id="edge15_Node000009_Node000015" class="edge">
<title>Node9&#45;&gt;Node15</title>
<g id="a_edge15_Node000009_Node000015"><a xlink:title=" ">
<path fill="none" stroke="#63b8ff" d="M387.47,-120.98C355.3,-112.01 304.44,-97.82 268.83,-87.89"/>
<polygon fill="#63b8ff" stroke="#63b8ff" points="269.34,-84.4 258.77,-85.08 267.46,-91.14 269.34,-84.4"/>
</a>
</g>
</g>
<!-- Node17 -->
<g id="Node000017" class="node">
<title>Node17</title>
<g id="a_Node000017"><a xlink:href="timestamp_8hpp.html" target="_top" xlink:title=" ">
<polygon fill="white" stroke="#666666" points="508.5,-85 393.5,-85 393.5,-66 508.5,-66 508.5,-85"/>
<text text-anchor="middle" x="451" y="-73" font-family="Helvetica,sans-Serif" font-size="10.00">utils/timestamp.hpp</text>
</a>
</g>
</g>
<!-- Node9&#45;&gt;Node17 -->
<g id="edge20_Node000009_Node000017" class="edge">
<title>Node9&#45;&gt;Node17</title>
<g id="a_edge20_Node000009_Node000017"><a xlink:title=" ">
<path fill="none" stroke="#63b8ff" d="M423.45,-120.75C428.01,-113.42 434.67,-102.73 440.29,-93.7"/>
<polygon fill="#63b8ff" stroke="#63b8ff" points="443.34,-95.43 445.65,-85.09 437.4,-91.73 443.34,-95.43"/>
</a>
</g>
</g>
<!-- Node15&#45;&gt;Node10 -->
<g id="edge18_Node000015_Node000010" class="edge">
<title>Node15&#45;&gt;Node10</title>
<g id="a_edge18_Node000015_Node000010"><a xlink:title=" ">
<path fill="none" stroke="#63b8ff" d="M248.5,-65.99C272.31,-56.12 311.79,-39.73 339.04,-28.43"/>
<polygon fill="#63b8ff" stroke="#63b8ff" points="340.58,-31.58 348.47,-24.52 337.89,-25.12 340.58,-31.58"/>
</a>
</g>
</g>
<!-- Node15&#45;&gt;Node12 -->
<g id="edge17_Node000015_Node000012" class="edge">
<title>Node15&#45;&gt;Node12</title>
<g id="a_edge17_Node000015_Node000012"><a xlink:title=" ">
<path fill="none" stroke="#63b8ff" d="M208.37,-65.99C185.67,-56.16 148.1,-39.88 122.03,-28.58"/>
<polygon fill="#63b8ff" stroke="#63b8ff" points="123.22,-25.28 112.65,-24.52 120.44,-31.7 123.22,-25.28"/>
</a>
</g>
</g>
<!-- Node15&#45;&gt;Node14 -->
<g id="edge16_Node000015_Node000014" class="edge">
<title>Node15&#45;&gt;Node14</title>
<g id="a_edge16_Node000015_Node000014"><a xlink:title=" ">
<path fill="none" stroke="#63b8ff" d="M237.44,-65.87C247.27,-56.88 262.89,-42.61 274.89,-31.64"/>
<polygon fill="#63b8ff" stroke="#63b8ff" points="277.5,-34 282.52,-24.67 272.78,-28.83 277.5,-34"/>
</a>
</g>
</g>
<!-- Node16 -->
<g id="Node000016" class="node">
<title>Node16</title>
<g id="a_Node000016"><a xlink:title=" ">
<polygon fill="#e0e0e0" stroke="#999999" points="252,-30 136,-30 136,0 252,0 252,-30"/>
<text text-anchor="start" x="144" y="-18" font-family="Helvetica,sans-Serif" font-size="10.00">boost/multiprecision</text>
<text text-anchor="middle" x="194" y="-7" font-family="Helvetica,sans-Serif" font-size="10.00">/cpp_int.hpp</text>
</a>
</g>
</g>
<!-- Node15&#45;&gt;Node16 -->
<g id="edge19_Node000015_Node000016" class="edge">
<title>Node15&#45;&gt;Node16</title>
<g id="a_edge19_Node000015_Node000016"><a xlink:title=" ">
<path fill="none" stroke="#63b8ff" d="M222.98,-65.87C218.84,-58.74 212.76,-48.28 207.24,-38.79"/>
<polygon fill="#63b8ff" stroke="#63b8ff" points="210.25,-37 202.2,-30.11 204.2,-40.52 210.25,-37"/>
</a>
</g>
</g>
<!-- Node17&#45;&gt;Node7 -->
<g id="edge21_Node000017_Node000007" class="edge">
<title>Node17&#45;&gt;Node7</title>
<g id="a_edge21_Node000017_Node000007"><a xlink:title=" ">
<path fill="none" stroke="#63b8ff" d="M498.69,-65.99C566.44,-53.91 688.73,-32.1 746.76,-21.75"/>
<polygon fill="#63b8ff" stroke="#63b8ff" points="747.59,-25.16 756.82,-19.96 746.36,-18.27 747.59,-25.16"/>
</a>
</g>
</g>
<!-- Node17&#45;&gt;Node8 -->
<g id="edge23_Node000017_Node000008" class="edge">
<title>Node17&#45;&gt;Node8</title>
<g id="a_edge23_Node000017_Node000008"><a xlink:title=" ">
<path fill="none" stroke="#63b8ff" d="M393.3,-72.94C316.04,-69.72 175.25,-59.91 59,-30 56.84,-29.44 54.64,-28.78 52.44,-28.05"/>
<polygon fill="#63b8ff" stroke="#63b8ff" points="53.63,-24.75 43.03,-24.51 51.16,-31.3 53.63,-24.75"/>
</a>
</g>
</g>
<!-- Node17&#45;&gt;Node11 -->
<g id="edge22_Node000017_Node000011" class="edge">
<title>Node17&#45;&gt;Node11</title>
<g id="a_edge22_Node000017_Node000011"><a xlink:title=" ">
<path fill="none" stroke="#63b8ff" d="M451,-65.87C451,-57.75 451,-45.31 451,-34.89"/>
<polygon fill="#63b8ff" stroke="#63b8ff" points="454.5,-34.67 451,-24.67 447.5,-34.67 454.5,-34.67"/>
</a>
</g>
</g>
</g>
</svg>

<g id="navigator" transform="translate(0 0)" fill="#404254">
  <rect fill="#f2f5e9" fill-opacity="0.5" stroke="#606060" stroke-width=".5" x="0" y="0" width="60" height="60"/>
  <use id="zoomplus" xlink:href="#zoomPlus" x="17" y="9" onmousedown="handleZoom(evt,'in')"/>
  <use id="zoomminus" xlink:href="#zoomMin" x="42" y="9" onmousedown="handleZoom(evt,'out')"/>
  <use id="reset" xlink:href="#resetDef" x="30" y="36" onmousedown="handleReset()"/>
   <use id="arrowup" xlink:href="#arrowUp" x="0" y="0" onmousedown="handlePan(0,-1)"/>
  <use id="arrowright" xlink:href="#arrowRight" x="0" y="0" onmousedown="handlePan(1,0)"/>
  <use id="arrowdown" xlink:href="#arrowDown" x="0" y="0" onmousedown="handlePan(0,1)"/>
  <use id="arrowleft" xlink:href="#arrowLeft" x="0" y="0" onmousedown="handlePan(-1,0)"/>
</g>
<svg viewBox="0 0 15 15" width="100%" height="30px" preserveAspectRatio="xMaxYMin meet">
 <g id="arrow_out" transform="scale(0.3 0.3)">
  <a xlink:href="coinbase__ws__order__gateway_8hpp__incl_org.svg" target="_base">
   <rect id="button" ry="5" rx="5" y="6" x="6" height="38" width="38"
        fill="#f2f5e9" fill-opacity="0.5" stroke="#606060" stroke-width="1.0"/>
   <path id="arrow"
     d="M 11.500037,31.436501 C 11.940474,20.09759 22.043105,11.32322 32.158766,21.979434 L 37.068811,17.246167 C 37.068811,17.246167 37.088388,32 37.088388,32 L 22.160133,31.978069 C 22.160133,31.978069 26.997745,27.140456 26.997745,27.140456 C 18.528582,18.264221 13.291696,25.230495 11.500037,31.436501 z"
     style="fill:#404040;"/>
  </a>
 </g>
</svg>

<style type='text/css'>
<![CDATA[
[data-mouse-over-selected='false'] { opacity: 0.7; }
[data-mouse-over-selected='true']  { opacity: 1.0; }
]]>
</style>
<script type="application/ecmascript"><![CDATA[
document.addEventListener('DOMContentLoaded', (event) => {
  highlightEdges();
  highlightAdjacentNodes();
});
]]></script>
</svg>
