<?xml version="1.0" encoding="UTF-8" standalone="no"?>
<!DOCTYPE svg PUBLIC "-//W3C//DTD SVG 1.1//EN"
 "http://www.w3.org/Graphics/SVG/1.1/DTD/svg11.dtd">
<!-- Generated by graphviz version 2.43.0 (0)
 -->
<!-- Title: common/order.hpp Pages: 1 -->
<!--zoomable 148 -->

<svg id="main" version="1.1" xmlns="http://www.w3.org/2000/svg" xmlns:xlink="http://www.w3.org/1999/xlink" xml:space="preserve" onload="init(evt)">
<style type="text/css"><![CDATA[
.node, .edge {opacity: 0.7;}
.node.selected, .edge.selected {opacity: 1;}
.edge:hover path { stroke: red; }
.edge:hover polygon { stroke: red; fill: red; }
]]></style>

<defs>
  <circle id="rim" cx="0" cy="0" r="7"/>
  <circle id="rim2" cx="0" cy="0" r="3.5"/>
  <g id="zoomPlus">
    <use xlink:href="#rim" fill="#404040"><set attributeName="fill" to="#808080" begin="zoomplus.mouseover" end="zoomplus.mouseout"/></use>
    <path d="M-4,0h8M0,-4v8" fill="none" stroke="white" stroke-width="1.5" pointer-events="none"/>
  </g>
  <g id="zoomMin">
    <use xlink:href="#rim" fill="#404040"><set attributeName="fill" to="#808080" begin="zoomminus.mouseover" end="zoomminus.mouseout"/></use>
    <path d="M-4,0h8" fill="none" stroke="white" stroke-width="1.5" pointer-events="none"/>
  </g>
  <g id="arrowUp" transform="translate(30 24)">
    <use xlink:href="#rim"/>
    <path pointer-events="none" fill="none" stroke="white" stroke-width="1.5" d="M0,-3.0v7 M-2.5,-0.5L0,-3.0L2.5,-0.5"/>
  </g>
  <g id="arrowRight" transform="rotate(90) translate(36 -43)">
    <use xlink:href="#rim"/>
    <path pointer-events="none" fill="none" stroke="white" stroke-width="1.5" d="M0,-3.0v7 M-2.5,-0.5L0,-3.0L2.5,-0.5"/>
  </g>
  <g id="arrowDown" transform="rotate(180) translate(-30 -48)">
    <use xlink:href="#rim"/>
    <path pointer-events="none" fill="none" stroke="white" stroke-width="1.5" d="M0,-3.0v7 M-2.5,-0.5L0,-3.0L2.5,-0.5"/>
  </g>
  <g id="arrowLeft" transform="rotate(270) translate(-36 17)">
    <use xlink:href="#rim"/>
    <path pointer-events="none" fill="none" stroke="white" stroke-width="1.5" d="M0,-3.0v7 M-2.5,-0.5L0,-3.0L2.5,-0.5"/>
  </g>
  <g id="resetDef">
    <use xlink:href="#rim2" fill="#404040"><set attributeName="fill" to="#808080" begin="reset.mouseover" end="reset.mouseout"/></use>
  </g>
</defs>
<script type="application/ecmascript">
var viewWidth = 949;
var viewHeight = 148;
var sectionId = 'dynsection-0';
</script>
<script type="application/ecmascript" xlink:href="svg.min.js"/>
<svg id="graph" class="graph">
<g id="viewport">
<title>common/order.hpp</title>
<!-- Node1 -->
<g id="Node000001" class="node">
<title>Node1</title>
<g id="a_Node000001"><a xlink:title=" ">
<polygon fill="#999999" stroke="#666666" points="514,-140 406,-140 406,-121 514,-121 514,-140"/>
<text text-anchor="middle" x="460" y="-128" font-family="Helvetica,sans-Serif" font-size="10.00">common/order.hpp</text>
</a>
</g>
</g>
<!-- Node2 -->
<g id="Node000002" class="node">
<title>Node2</title>
<g id="a_Node000002"><a xlink:title=" ">
<polygon fill="#e0e0e0" stroke="#999999" points="765,-24.5 701,-24.5 701,-5.5 765,-5.5 765,-24.5"/>
<text text-anchor="middle" x="733" y="-12.5" font-family="Helvetica,sans-Serif" font-size="10.00">algorithm</text>
</a>
</g>
</g>
<!-- Node1&#45;&gt;Node2 -->
<g id="edge1_Node000001_Node000002" class="edge">
<title>Node1&#45;&gt;Node2</title>
<g id="a_edge1_Node000001_Node000002"><a xlink:title=" ">
<path fill="none" stroke="#63b8ff" d="M514.3,-124.97C555.63,-119.75 612.9,-108.62 658,-85 682.86,-71.98 705.71,-48.6 719.49,-32.7"/>
<polygon fill="#63b8ff" stroke="#63b8ff" points="722.42,-34.66 726.17,-24.75 717.06,-30.16 722.42,-34.66"/>
</a>
</g>
</g>
<!-- Node3 -->
<g id="Node000003" class="node">
<title>Node3</title>
<g id="a_Node000003"><a xlink:title=" ">
<polygon fill="#e0e0e0" stroke="#999999" points="400,-24.5 356,-24.5 356,-5.5 400,-5.5 400,-24.5"/>
<text text-anchor="middle" x="378" y="-12.5" font-family="Helvetica,sans-Serif" font-size="10.00">string</text>
</a>
</g>
</g>
<!-- Node1&#45;&gt;Node3 -->
<g id="edge2_Node000001_Node000003" class="edge">
<title>Node1&#45;&gt;Node3</title>
<g id="a_edge2_Node000001_Node000003"><a xlink:title=" ">
<path fill="none" stroke="#63b8ff" d="M405.84,-120.92C384.76,-114.65 362.67,-103.79 350,-85 338.88,-68.51 351.23,-46.93 362.86,-32.32"/>
<polygon fill="#63b8ff" stroke="#63b8ff" points="365.61,-34.5 369.45,-24.62 360.29,-29.95 365.61,-34.5"/>
</a>
</g>
</g>
<!-- Node4 -->
<g id="Node000004" class="node">
<title>Node4</title>
<g id="a_Node000004"><a xlink:title=" ">
<polygon fill="#e0e0e0" stroke="#999999" points="337.5,-24.5 264.5,-24.5 264.5,-5.5 337.5,-5.5 337.5,-24.5"/>
<text text-anchor="middle" x="301" y="-12.5" font-family="Helvetica,sans-Serif" font-size="10.00">string_view</text>
</a>
</g>
</g>
<!-- Node1&#45;&gt;Node4 -->
<g id="edge3_Node000001_Node000004" class="edge">
<title>Node1&#45;&gt;Node4</title>
<g id="a_edge3_Node000001_Node000004"><a xlink:title=" ">
<path fill="none" stroke="#63b8ff" d="M417.95,-120.98C393.67,-114.39 363.73,-103.21 342,-85 325.86,-71.47 314.49,-49.87 307.88,-34.44"/>
<polygon fill="#63b8ff" stroke="#63b8ff" points="311.03,-32.9 304.06,-24.92 304.54,-35.51 311.03,-32.9"/>
</a>
</g>
</g>
<!-- Node5 -->
<g id="Node000005" class="node">
<title>Node5</title>
<g id="a_Node000005"><a xlink:title=" ">
<polygon fill="#e0e0e0" stroke="#999999" points="468,-24.5 418,-24.5 418,-5.5 468,-5.5 468,-24.5"/>
<text text-anchor="middle" x="443" y="-12.5" font-family="Helvetica,sans-Serif" font-size="10.00">chrono</text>
</a>
</g>
</g>
<!-- Node1&#45;&gt;Node5 -->
<g id="edge4_Node000001_Node000005" class="edge">
<title>Node1&#45;&gt;Node5</title>
<g id="a_edge4_Node000001_Node000005"><a xlink:title=" ">
<path fill="none" stroke="#63b8ff" d="M467.03,-120.89C476.09,-108.7 489.91,-85.69 483,-66 478.45,-53.02 468.95,-40.9 460.35,-31.85"/>
<polygon fill="#63b8ff" stroke="#63b8ff" points="462.74,-29.29 453.17,-24.74 457.81,-34.26 462.74,-29.29"/>
</a>
</g>
</g>
<!-- Node6 -->
<g id="Node000006" class="node">
<title>Node6</title>
<g id="a_Node000006"><a xlink:title=" ">
<polygon fill="#e0e0e0" stroke="#999999" points="50,-24.5 0,-24.5 0,-5.5 50,-5.5 50,-24.5"/>
<text text-anchor="middle" x="25" y="-12.5" font-family="Helvetica,sans-Serif" font-size="10.00">cstdint</text>
</a>
</g>
</g>
<!-- Node1&#45;&gt;Node6 -->
<g id="edge5_Node000001_Node000006" class="edge">
<title>Node1&#45;&gt;Node6</title>
<g id="a_edge5_Node000001_Node000006"><a xlink:title=" ">
<path fill="none" stroke="#63b8ff" d="M405.9,-128.91C340.21,-126.66 226.93,-117.81 136,-85 100.7,-72.26 64.69,-47.19 43.61,-31.03"/>
<polygon fill="#63b8ff" stroke="#63b8ff" points="45.57,-28.12 35.54,-24.71 41.26,-33.63 45.57,-28.12"/>
</a>
</g>
</g>
<!-- Node7 -->
<g id="Node000007" class="node">
<title>Node7</title>
<g id="a_Node000007"><a xlink:title=" ">
<polygon fill="#e0e0e0" stroke="#999999" points="833,-24.5 783,-24.5 783,-5.5 833,-5.5 833,-24.5"/>
<text text-anchor="middle" x="808" y="-12.5" font-family="Helvetica,sans-Serif" font-size="10.00">cstring</text>
</a>
</g>
</g>
<!-- Node1&#45;&gt;Node7 -->
<g id="edge6_Node000001_Node000007" class="edge">
<title>Node1&#45;&gt;Node7</title>
<g id="a_edge6_Node000001_Node000007"><a xlink:title=" ">
<path fill="none" stroke="#63b8ff" d="M514.03,-123.68C560.44,-117.55 628.59,-105.8 685,-85 723.13,-70.94 763.52,-46.11 787.21,-30.38"/>
<polygon fill="#63b8ff" stroke="#63b8ff" points="789.38,-33.14 795.72,-24.65 785.47,-27.34 789.38,-33.14"/>
</a>
</g>
</g>
<!-- Node8 -->
<g id="Node000008" class="node">
<title>Node8</title>
<g id="a_Node000008"><a xlink:title=" ">
<polygon fill="#e0e0e0" stroke="#999999" points="812.5,-85 743.5,-85 743.5,-66 812.5,-66 812.5,-85"/>
<text text-anchor="middle" x="778" y="-73" font-family="Helvetica,sans-Serif" font-size="10.00">type_traits</text>
</a>
</g>
</g>
<!-- Node1&#45;&gt;Node8 -->
<g id="edge7_Node000001_Node000008" class="edge">
<title>Node1&#45;&gt;Node8</title>
<g id="a_edge7_Node000001_Node000008"><a xlink:title=" ">
<path fill="none" stroke="#63b8ff" d="M512.34,-120.97C566.57,-112.09 653.74,-97.75 729,-85 730.46,-84.75 731.95,-84.5 733.45,-84.24"/>
<polygon fill="#63b8ff" stroke="#63b8ff" points="734.21,-87.66 743.47,-82.52 733.02,-80.77 734.21,-87.66"/>
</a>
</g>
</g>
<!-- Node9 -->
<g id="Node000009" class="node">
<title>Node9</title>
<g id="a_Node000009"><a xlink:title=" ">
<polygon fill="#e0e0e0" stroke="#999999" points="941,-85 831,-85 831,-66 941,-66 941,-85"/>
<text text-anchor="middle" x="886" y="-73" font-family="Helvetica,sans-Serif" font-size="10.00">nlohmann/json.hpp</text>
</a>
</g>
</g>
<!-- Node1&#45;&gt;Node9 -->
<g id="edge8_Node000001_Node000009" class="edge">
<title>Node1&#45;&gt;Node9</title>
<g id="a_edge8_Node000001_Node000009"><a xlink:title=" ">
<path fill="none" stroke="#63b8ff" d="M514.3,-122.99C583.11,-114.71 705.68,-99.83 820.8,-85.14"/>
<polygon fill="#63b8ff" stroke="#63b8ff" points="821.37,-88.6 830.85,-83.86 820.48,-81.66 821.37,-88.6"/>
</a>
</g>
</g>
<!-- Node10 -->
<g id="Node000010" class="node">
<title>Node10</title>
<g id="a_Node000010"><a xlink:title=" ">
<polygon fill="#e0e0e0" stroke="#999999" points="112,-24.5 68,-24.5 68,-5.5 112,-5.5 112,-24.5"/>
<text text-anchor="middle" x="90" y="-12.5" font-family="Helvetica,sans-Serif" font-size="10.00">limits</text>
</a>
</g>
</g>
<!-- Node1&#45;&gt;Node10 -->
<g id="edge9_Node000001_Node000010" class="edge">
<title>Node1&#45;&gt;Node10</title>
<g id="a_edge9_Node000001_Node000010"><a xlink:title=" ">
<path fill="none" stroke="#63b8ff" d="M405.97,-130.25C345.29,-129.11 245.21,-121.14 168,-85 141.78,-72.73 117.85,-48.82 103.6,-32.63"/>
<polygon fill="#63b8ff" stroke="#63b8ff" points="106.22,-30.31 97.07,-24.97 100.89,-34.85 106.22,-30.31"/>
</a>
</g>
</g>
<!-- Node11 -->
<g id="Node000011" class="node">
<title>Node11</title>
<g id="a_Node000011"><a xlink:href="types_8hpp.html" target="_top" xlink:title=" ">
<polygon fill="white" stroke="#666666" points="242.5,-85 177.5,-85 177.5,-66 242.5,-66 242.5,-85"/>
<text text-anchor="middle" x="210" y="-73" font-family="Helvetica,sans-Serif" font-size="10.00">types.hpp</text>
</a>
</g>
</g>
<!-- Node1&#45;&gt;Node11 -->
<g id="edge10_Node000001_Node000011" class="edge">
<title>Node1&#45;&gt;Node11</title>
<g id="a_edge10_Node000001_Node000011"><a xlink:title=" ">
<path fill="none" stroke="#63b8ff" d="M419.83,-120.98C373.93,-111.25 299.12,-95.39 252.33,-85.47"/>
<polygon fill="#63b8ff" stroke="#63b8ff" points="253.01,-82.04 242.5,-83.39 251.56,-88.89 253.01,-82.04"/>
</a>
</g>
</g>
<!-- Node13 -->
<g id="Node000013" class="node">
<title>Node13</title>
<g id="a_Node000013"><a xlink:href="fixed__string_8hpp.html" target="_top" xlink:title=" ">
<polygon fill="white" stroke="#666666" points="649,-85 531,-85 531,-66 649,-66 649,-85"/>
<text text-anchor="middle" x="590" y="-73" font-family="Helvetica,sans-Serif" font-size="10.00">utils/fixed_string.hpp</text>
</a>
</g>
</g>
<!-- Node1&#45;&gt;Node13 -->
<g id="edge16_Node000001_Node000013" class="edge">
<title>Node1&#45;&gt;Node13</title>
<g id="a_edge16_Node000001_Node000013"><a xlink:title=" ">
<path fill="none" stroke="#63b8ff" d="M480.89,-120.98C502.08,-112.34 535.13,-98.87 559.3,-89.02"/>
<polygon fill="#63b8ff" stroke="#63b8ff" points="560.79,-92.19 568.73,-85.17 558.15,-85.7 560.79,-92.19"/>
</a>
</g>
</g>
<!-- Node17 -->
<g id="Node000017" class="node">
<title>Node17</title>
<g id="a_Node000017"><a xlink:href="timestamp_8hpp.html" target="_top" xlink:title=" ">
<polygon fill="white" stroke="#666666" points="474.5,-85 359.5,-85 359.5,-66 474.5,-66 474.5,-85"/>
<text text-anchor="middle" x="417" y="-73" font-family="Helvetica,sans-Serif" font-size="10.00">utils/timestamp.hpp</text>
</a>
</g>
</g>
<!-- Node1&#45;&gt;Node17 -->
<g id="edge24_Node000001_Node000017" class="edge">
<title>Node1&#45;&gt;Node17</title>
<g id="a_edge24_Node000001_Node000017"><a xlink:title=" ">
<path fill="none" stroke="#63b8ff" d="M452.9,-120.75C446.83,-113.26 437.91,-102.28 430.49,-93.13"/>
<polygon fill="#63b8ff" stroke="#63b8ff" points="432.99,-90.65 423.97,-85.09 427.55,-95.06 432.99,-90.65"/>
</a>
</g>
</g>
<!-- Node11&#45;&gt;Node3 -->
<g id="edge13_Node000011_Node000003" class="edge">
<title>Node11&#45;&gt;Node3</title>
<g id="a_edge13_Node000011_Node000003"><a xlink:title=" ">
<path fill="none" stroke="#63b8ff" d="M238.67,-66C266.39,-57.57 309.44,-43.94 346,-30 347.21,-29.54 348.44,-29.06 349.68,-28.56"/>
<polygon fill="#63b8ff" stroke="#63b8ff" points="351.3,-31.68 359.17,-24.6 348.6,-25.22 351.3,-31.68"/>
</a>
</g>
</g>
<!-- Node11&#45;&gt;Node4 -->
<g id="edge14_Node000011_Node000004" class="edge">
<title>Node11&#45;&gt;Node4</title>
<g id="a_edge14_Node000011_Node000004"><a xlink:title=" ">
<path fill="none" stroke="#63b8ff" d="M223.43,-65.87C238.08,-56.45 261.76,-41.23 279.1,-30.08"/>
<polygon fill="#63b8ff" stroke="#63b8ff" points="281,-33.02 287.52,-24.67 277.21,-27.13 281,-33.02"/>
</a>
</g>
</g>
<!-- Node11&#45;&gt;Node6 -->
<g id="edge12_Node000011_Node000006" class="edge">
<title>Node11&#45;&gt;Node6</title>
<g id="a_edge12_Node000011_Node000006"><a xlink:title=" ">
<path fill="none" stroke="#63b8ff" d="M177.58,-66C146.79,-57.67 99.34,-44.21 59,-30 57.57,-29.5 56.11,-28.97 54.65,-28.42"/>
<polygon fill="#63b8ff" stroke="#63b8ff" points="55.59,-25.03 45,-24.64 53.04,-31.55 55.59,-25.03"/>
</a>
</g>
</g>
<!-- Node11&#45;&gt;Node10 -->
<g id="edge11_Node000011_Node000010" class="edge">
<title>Node11&#45;&gt;Node10</title>
<g id="a_edge11_Node000011_Node000010"><a xlink:title=" ">
<path fill="none" stroke="#63b8ff" d="M192.55,-65.99C172.64,-56.29 139.86,-40.31 116.73,-29.03"/>
<polygon fill="#63b8ff" stroke="#63b8ff" points="117.99,-25.75 107.47,-24.52 114.93,-32.04 117.99,-25.75"/>
</a>
</g>
</g>
<!-- Node12 -->
<g id="Node000012" class="node">
<title>Node12</title>
<g id="a_Node000012"><a xlink:title=" ">
<polygon fill="#e0e0e0" stroke="#999999" points="246,-30 130,-30 130,0 246,0 246,-30"/>
<text text-anchor="start" x="138" y="-18" font-family="Helvetica,sans-Serif" font-size="10.00">boost/multiprecision</text>
<text text-anchor="middle" x="188" y="-7" font-family="Helvetica,sans-Serif" font-size="10.00">/cpp_int.hpp</text>
</a>
</g>
</g>
<!-- Node11&#45;&gt;Node12 -->
<g id="edge15_Node000011_Node000012" class="edge">
<title>Node11&#45;&gt;Node12</title>
<g id="a_edge15_Node000011_Node000012"><a xlink:title=" ">
<path fill="none" stroke="#63b8ff" d="M206.75,-65.87C204.16,-58.96 200.38,-48.93 196.9,-39.67"/>
<polygon fill="#63b8ff" stroke="#63b8ff" points="200.1,-38.24 193.31,-30.11 193.55,-40.71 200.1,-38.24"/>
</a>
</g>
</g>
<!-- Node13&#45;&gt;Node2 -->
<g id="edge17_Node000013_Node000002" class="edge">
<title>Node13&#45;&gt;Node2</title>
<g id="a_edge17_Node000013_Node000002"><a xlink:title=" ">
<path fill="none" stroke="#63b8ff" d="M610.79,-65.99C634.94,-56.12 674.98,-39.73 702.62,-28.43"/>
<polygon fill="#63b8ff" stroke="#63b8ff" points="704.25,-31.54 712.18,-24.52 701.6,-25.06 704.25,-31.54"/>
</a>
</g>
</g>
<!-- Node13&#45;&gt;Node3 -->
<g id="edge22_Node000013_Node000003" class="edge">
<title>Node13&#45;&gt;Node3</title>
<g id="a_edge22_Node000013_Node000003"><a xlink:title=" ">
<path fill="none" stroke="#63b8ff" d="M545.46,-65.93C508.41,-58.24 454.57,-45.74 409,-30 407.6,-29.52 406.19,-29 404.76,-28.45"/>
<polygon fill="#63b8ff" stroke="#63b8ff" points="406.05,-25.19 395.48,-24.57 403.35,-31.65 406.05,-25.19"/>
</a>
</g>
</g>
<!-- Node13&#45;&gt;Node4 -->
<g id="edge23_Node000013_Node000004" class="edge">
<title>Node13&#45;&gt;Node4</title>
<g id="a_edge23_Node000013_Node000004"><a xlink:title=" ">
<path fill="none" stroke="#63b8ff" d="M533.15,-65.98C483.65,-58.11 410.14,-45.34 347,-30 343.65,-29.19 340.19,-28.27 336.74,-27.31"/>
<polygon fill="#63b8ff" stroke="#63b8ff" points="337.71,-23.95 327.13,-24.52 335.75,-30.67 337.71,-23.95"/>
</a>
</g>
</g>
<!-- Node13&#45;&gt;Node7 -->
<g id="edge19_Node000013_Node000007" class="edge">
<title>Node13&#45;&gt;Node7</title>
<g id="a_edge19_Node000013_Node000007"><a xlink:title=" ">
<path fill="none" stroke="#63b8ff" d="M633.28,-66C670.9,-58.14 726.64,-45.38 774,-30 775.67,-29.46 777.37,-28.87 779.08,-28.25"/>
<polygon fill="#63b8ff" stroke="#63b8ff" points="780.7,-31.38 788.77,-24.52 778.18,-24.85 780.7,-31.38"/>
</a>
</g>
</g>
<!-- Node14 -->
<g id="Node000014" class="node">
<title>Node14</title>
<g id="a_Node000014"><a xlink:title=" ">
<polygon fill="#e0e0e0" stroke="#999999" points="682.5,-24.5 629.5,-24.5 629.5,-5.5 682.5,-5.5 682.5,-24.5"/>
<text text-anchor="middle" x="656" y="-12.5" font-family="Helvetica,sans-Serif" font-size="10.00">cstddef</text>
</a>
</g>
</g>
<!-- Node13&#45;&gt;Node14 -->
<g id="edge18_Node000013_Node000014" class="edge">
<title>Node13&#45;&gt;Node14</title>
<g id="a_edge18_Node000013_Node000014"><a xlink:title=" ">
<path fill="none" stroke="#63b8ff" d="M599.74,-65.87C609.97,-56.8 626.29,-42.34 638.72,-31.32"/>
<polygon fill="#63b8ff" stroke="#63b8ff" points="641.06,-33.92 646.22,-24.67 636.42,-28.68 641.06,-33.92"/>
</a>
</g>
</g>
<!-- Node15 -->
<g id="Node000015" class="node">
<title>Node15</title>
<g id="a_Node000015"><a xlink:title=" ">
<polygon fill="#e0e0e0" stroke="#999999" points="536,-24.5 486,-24.5 486,-5.5 536,-5.5 536,-24.5"/>
<text text-anchor="middle" x="511" y="-12.5" font-family="Helvetica,sans-Serif" font-size="10.00">format</text>
</a>
</g>
</g>
<!-- Node13&#45;&gt;Node15 -->
<g id="edge20_Node000013_Node000015" class="edge">
<title>Node13&#45;&gt;Node15</title>
<g id="a_edge20_Node000013_Node000015"><a xlink:title=" ">
<path fill="none" stroke="#63b8ff" d="M578.34,-65.87C565.86,-56.62 545.82,-41.78 530.84,-30.69"/>
<polygon fill="#63b8ff" stroke="#63b8ff" points="532.82,-27.81 522.7,-24.67 528.66,-33.43 532.82,-27.81"/>
</a>
</g>
</g>
<!-- Node16 -->
<g id="Node000016" class="node">
<title>Node16</title>
<g id="a_Node000016"><a xlink:title=" ">
<polygon fill="#e0e0e0" stroke="#999999" points="611.5,-24.5 554.5,-24.5 554.5,-5.5 611.5,-5.5 611.5,-24.5"/>
<text text-anchor="middle" x="583" y="-12.5" font-family="Helvetica,sans-Serif" font-size="10.00">ostream</text>
</a>
</g>
</g>
<!-- Node13&#45;&gt;Node16 -->
<g id="edge21_Node000013_Node000016" class="edge">
<title>Node13&#45;&gt;Node16</title>
<g id="a_edge21_Node000013_Node000016"><a xlink:title=" ">
<path fill="none" stroke="#63b8ff" d="M588.97,-65.87C588,-57.75 586.51,-45.31 585.26,-34.89"/>
<polygon fill="#63b8ff" stroke="#63b8ff" points="588.7,-34.18 584.04,-24.67 581.75,-35.01 588.7,-34.18"/>
</a>
</g>
</g>
<!-- Node17&#45;&gt;Node3 -->
<g id="edge25_Node000017_Node000003" class="edge">
<title>Node17&#45;&gt;Node3</title>
<g id="a_edge25_Node000017_Node000003"><a xlink:title=" ">
<path fill="none" stroke="#63b8ff" d="M411.25,-65.87C405.54,-57.31 396.65,-43.97 389.49,-33.24"/>
<polygon fill="#63b8ff" stroke="#63b8ff" points="392.24,-31.05 383.78,-24.67 386.41,-34.93 392.24,-31.05"/>
</a>
</g>
</g>
<!-- Node17&#45;&gt;Node5 -->
<g id="edge26_Node000017_Node000005" class="edge">
<title>Node17&#45;&gt;Node5</title>
<g id="a_edge26_Node000017_Node000005"><a xlink:title=" ">
<path fill="none" stroke="#63b8ff" d="M420.84,-65.87C424.56,-57.49 430.33,-44.51 435.05,-33.89"/>
<polygon fill="#63b8ff" stroke="#63b8ff" points="438.28,-35.23 439.15,-24.67 431.89,-32.38 438.28,-35.23"/>
</a>
</g>
</g>
<!-- Node17&#45;&gt;Node15 -->
<g id="edge27_Node000017_Node000015" class="edge">
<title>Node17&#45;&gt;Node15</title>
<g id="a_edge27_Node000017_Node000015"><a xlink:title=" ">
<path fill="none" stroke="#63b8ff" d="M430.87,-65.87C446,-56.45 470.46,-41.23 488.38,-30.08"/>
<polygon fill="#63b8ff" stroke="#63b8ff" points="490.43,-32.92 497.07,-24.67 486.73,-26.98 490.43,-32.92"/>
</a>
</g>
</g>
</g>
</svg>

<g id="navigator" transform="translate(0 0)" fill="#404254">
  <rect fill="#f2f5e9" fill-opacity="0.5" stroke="#606060" stroke-width=".5" x="0" y="0" width="60" height="60"/>
  <use id="zoomplus" xlink:href="#zoomPlus" x="17" y="9" onmousedown="handleZoom(evt,'in')"/>
  <use id="zoomminus" xlink:href="#zoomMin" x="42" y="9" onmousedown="handleZoom(evt,'out')"/>
  <use id="reset" xlink:href="#resetDef" x="30" y="36" onmousedown="handleReset()"/>
   <use id="arrowup" xlink:href="#arrowUp" x="0" y="0" onmousedown="handlePan(0,-1)"/>
  <use id="arrowright" xlink:href="#arrowRight" x="0" y="0" onmousedown="handlePan(1,0)"/>
  <use id="arrowdown" xlink:href="#arrowDown" x="0" y="0" onmousedown="handlePan(0,1)"/>
  <use id="arrowleft" xlink:href="#arrowLeft" x="0" y="0" onmousedown="handlePan(-1,0)"/>
</g>
<svg viewBox="0 0 15 15" width="100%" height="30px" preserveAspectRatio="xMaxYMin meet">
 <g id="arrow_out" transform="scale(0.3 0.3)">
  <a xlink:href="common_2order_8hpp__incl_org.svg" target="_base">
   <rect id="button" ry="5" rx="5" y="6" x="6" height="38" width="38"
        fill="#f2f5e9" fill-opacity="0.5" stroke="#606060" stroke-width="1.0"/>
   <path id="arrow"
     d="M 11.500037,31.436501 C 11.940474,20.09759 22.043105,11.32322 32.158766,21.979434 L 37.068811,17.246167 C 37.068811,17.246167 37.088388,32 37.088388,32 L 22.160133,31.978069 C 22.160133,31.978069 26.997745,27.140456 26.997745,27.140456 C 18.528582,18.264221 13.291696,25.230495 11.500037,31.436501 z"
     style="fill:#404040;"/>
  </a>
 </g>
</svg>

<style type='text/css'>
<![CDATA[
[data-mouse-over-selected='false'] { opacity: 0.7; }
[data-mouse-over-selected='true']  { opacity: 1.0; }
]]>
</style>
<script type="application/ecmascript"><![CDATA[
document.addEventListener('DOMContentLoaded', (event) => {
  highlightEdges();
  highlightAdjacentNodes();
});
]]></script>
</svg>
