<?xml version="1.0" encoding="UTF-8" standalone="no"?>
<!DOCTYPE svg PUBLIC "-//W3C//DTD SVG 1.1//EN"
 "http://www.w3.org/Graphics/SVG/1.1/DTD/svg11.dtd">
<!-- Generated by graphviz version 2.43.0 (0)
 -->
<!-- Title: md_feed/md_feed.hpp Pages: 1 -->
<svg width="932pt" height="247pt"
 viewBox="0.00 0.00 932.00 247.00" xmlns="http://www.w3.org/2000/svg" xmlns:xlink="http://www.w3.org/1999/xlink">
<g id="graph0" class="graph" transform="scale(1 1) rotate(0) translate(4 243)">
<title>md_feed/md_feed.hpp</title>
<!-- Node1 -->
<g id="Node000001" class="node">
<title>Node1</title>
<g id="a_Node000001"><a xlink:title=" ">
<polygon fill="#999999" stroke="#666666" points="552.5,-239 426.5,-239 426.5,-220 552.5,-220 552.5,-239"/>
<text text-anchor="middle" x="489.5" y="-227" font-family="Helvetica,sans-Serif" font-size="10.00">md_feed/md_feed.hpp</text>
</a>
</g>
</g>
<!-- Node2 -->
<g id="Node000002" class="node">
<title>Node2</title>
<g id="a_Node000002"><a xlink:href="exchange_8hpp.html" target="_top" xlink:title=" ">
<polygon fill="white" stroke="#666666" points="399,-173 264,-173 264,-154 399,-154 399,-173"/>
<text text-anchor="middle" x="331.5" y="-161" font-family="Helvetica,sans-Serif" font-size="10.00">exchange/exchange.hpp</text>
</a>
</g>
</g>
<!-- Node1&#45;&gt;Node2 -->
<g id="edge1_Node000001_Node000002" class="edge">
<title>Node1&#45;&gt;Node2</title>
<g id="a_edge1_Node000001_Node000002"><a xlink:title=" ">
<path fill="none" stroke="#63b8ff" d="M458.67,-216.01C427.44,-203.36 379.97,-184.13 352.72,-173.1"/>
<polygon fill="#63b8ff" stroke="#63b8ff" points="457.61,-219.36 468.19,-219.87 460.24,-212.87 457.61,-219.36"/>
</a>
</g>
</g>
<!-- Node12 -->
<g id="Node000012" class="node">
<title>Node12</title>
<g id="a_Node000012"><a xlink:href="coinbase__live__ws__feed_8hpp.html" target="_top" xlink:title=" ">
<polygon fill="white" stroke="#666666" points="562,-101.5 417,-101.5 417,-71.5 562,-71.5 562,-101.5"/>
<text text-anchor="start" x="425" y="-89.5" font-family="Helvetica,sans-Serif" font-size="10.00">venues/coinbase/coinbase</text>
<text text-anchor="middle" x="489.5" y="-78.5" font-family="Helvetica,sans-Serif" font-size="10.00">_live_ws_feed.hpp</text>
</a>
</g>
</g>
<!-- Node1&#45;&gt;Node12 -->
<g id="edge11_Node000001_Node000012" class="edge">
<title>Node1&#45;&gt;Node12</title>
<g id="a_edge11_Node000001_Node000012"><a xlink:title=" ">
<path fill="none" stroke="#63b8ff" d="M489.5,-209.35C489.5,-180.61 489.5,-126.96 489.5,-101.54"/>
<polygon fill="#63b8ff" stroke="#63b8ff" points="486,-209.68 489.5,-219.68 493,-209.68 486,-209.68"/>
</a>
</g>
</g>
<!-- Node13 -->
<g id="Node000013" class="node">
<title>Node13</title>
<g id="a_Node000013"><a xlink:href="hyperliquid__live__ws__feed_8hpp.html" target="_top" xlink:title=" ">
<polygon fill="white" stroke="#666666" points="787.5,-184 671.5,-184 671.5,-143 787.5,-143 787.5,-184"/>
<text text-anchor="start" x="679.5" y="-172" font-family="Helvetica,sans-Serif" font-size="10.00">venues/hyperliquid</text>
<text text-anchor="start" x="679.5" y="-161" font-family="Helvetica,sans-Serif" font-size="10.00">/hyperliquid_live_ws</text>
<text text-anchor="middle" x="729.5" y="-150" font-family="Helvetica,sans-Serif" font-size="10.00">_feed.hpp</text>
</a>
</g>
</g>
<!-- Node1&#45;&gt;Node13 -->
<g id="edge14_Node000001_Node000013" class="edge">
<title>Node1&#45;&gt;Node13</title>
<g id="a_edge14_Node000001_Node000013"><a xlink:title=" ">
<path fill="none" stroke="#63b8ff" d="M531.79,-217.22C570.57,-206.88 628.36,-191.47 671.46,-179.98"/>
<polygon fill="#63b8ff" stroke="#63b8ff" points="530.63,-213.91 521.87,-219.87 532.43,-220.67 530.63,-213.91"/>
</a>
</g>
</g>
<!-- Node3 -->
<g id="Node000003" class="node">
<title>Node3</title>
<g id="a_Node000003"><a xlink:href="exchange_8cpp.html" target="_top" xlink:title=" ">
<polygon fill="white" stroke="#666666" points="398.5,-96 264.5,-96 264.5,-77 398.5,-77 398.5,-96"/>
<text text-anchor="middle" x="331.5" y="-84" font-family="Helvetica,sans-Serif" font-size="10.00">exchange/exchange.cpp</text>
</a>
</g>
</g>
<!-- Node2&#45;&gt;Node3 -->
<g id="edge2_Node000002_Node000003" class="edge">
<title>Node2&#45;&gt;Node3</title>
<g id="a_edge2_Node000002_Node000003"><a xlink:title=" ">
<path fill="none" stroke="#63b8ff" d="M331.5,-143.52C331.5,-128.24 331.5,-107.48 331.5,-96"/>
<polygon fill="#63b8ff" stroke="#63b8ff" points="328,-143.9 331.5,-153.9 335,-143.9 328,-143.9"/>
</a>
</g>
</g>
<!-- Node4 -->
<g id="Node000004" class="node">
<title>Node4</title>
<g id="a_Node000004"><a xlink:href="main_8cpp.html" target="_top" xlink:title=" ">
<polygon fill="white" stroke="#666666" points="246,-96 163,-96 163,-77 246,-77 246,-96"/>
<text text-anchor="middle" x="204.5" y="-84" font-family="Helvetica,sans-Serif" font-size="10.00">sim/main.cpp</text>
</a>
</g>
</g>
<!-- Node2&#45;&gt;Node4 -->
<g id="edge3_Node000002_Node000004" class="edge">
<title>Node2&#45;&gt;Node4</title>
<g id="a_edge3_Node000002_Node000004"><a xlink:title=" ">
<path fill="none" stroke="#63b8ff" d="M308.07,-148.67C281.98,-133.25 240.62,-108.83 218.9,-96"/>
<polygon fill="#63b8ff" stroke="#63b8ff" points="306.54,-151.83 316.93,-153.9 310.1,-145.8 306.54,-151.83"/>
</a>
</g>
</g>
<!-- Node5 -->
<g id="Node000005" class="node">
<title>Node5</title>
<g id="a_Node000005"><a xlink:href="coinbase__exchange_8hpp.html" target="_top" xlink:title=" ">
<polygon fill="white" stroke="#666666" points="145,-101.5 0,-101.5 0,-71.5 145,-71.5 145,-101.5"/>
<text text-anchor="start" x="8" y="-89.5" font-family="Helvetica,sans-Serif" font-size="10.00">venues/coinbase/coinbase</text>
<text text-anchor="middle" x="72.5" y="-78.5" font-family="Helvetica,sans-Serif" font-size="10.00">_exchange.hpp</text>
</a>
</g>
</g>
<!-- Node2&#45;&gt;Node5 -->
<g id="edge4_Node000002_Node000005" class="edge">
<title>Node2&#45;&gt;Node5</title>
<g id="a_edge4_Node000002_Node000005"><a xlink:title=" ">
<path fill="none" stroke="#63b8ff" d="M292.16,-151.11C246.26,-137.82 170.33,-115.83 120.86,-101.5"/>
<polygon fill="#63b8ff" stroke="#63b8ff" points="291.46,-154.55 302.04,-153.97 293.41,-147.83 291.46,-154.55"/>
</a>
</g>
</g>
<!-- Node9 -->
<g id="Node000009" class="node">
<title>Node9</title>
<g id="a_Node000009"><a xlink:href="hyperliquid__exchange_8hpp.html" target="_top" xlink:title=" ">
<polygon fill="white" stroke="#666666" points="728.5,-101.5 580.5,-101.5 580.5,-71.5 728.5,-71.5 728.5,-101.5"/>
<text text-anchor="start" x="588.5" y="-89.5" font-family="Helvetica,sans-Serif" font-size="10.00">venues/hyperliquid</text>
<text text-anchor="middle" x="654.5" y="-78.5" font-family="Helvetica,sans-Serif" font-size="10.00">/hyperliquid_exchange.hpp</text>
</a>
</g>
</g>
<!-- Node2&#45;&gt;Node9 -->
<g id="edge8_Node000002_Node000009" class="edge">
<title>Node2&#45;&gt;Node9</title>
<g id="a_edge8_Node000002_Node000009"><a xlink:title=" ">
<path fill="none" stroke="#63b8ff" d="M378.05,-151.69C435.02,-138.46 531.59,-116.04 594.19,-101.5"/>
<polygon fill="#63b8ff" stroke="#63b8ff" points="377.19,-148.3 368.24,-153.97 378.77,-155.12 377.19,-148.3"/>
</a>
</g>
</g>
<!-- Node6 -->
<g id="Node000006" class="node">
<title>Node6</title>
<g id="a_Node000006"><a xlink:href="coinbase__exchange_8cpp.html" target="_top" xlink:title=" ">
<polygon fill="white" stroke="#666666" points="331,-30 186,-30 186,0 331,0 331,-30"/>
<text text-anchor="start" x="194" y="-18" font-family="Helvetica,sans-Serif" font-size="10.00">venues/coinbase/coinbase</text>
<text text-anchor="middle" x="258.5" y="-7" font-family="Helvetica,sans-Serif" font-size="10.00">_exchange.cpp</text>
</a>
</g>
</g>
<!-- Node5&#45;&gt;Node6 -->
<g id="edge5_Node000005_Node000006" class="edge">
<title>Node5&#45;&gt;Node6</title>
<g id="a_edge5_Node000005_Node000006"><a xlink:title=" ">
<path fill="none" stroke="#63b8ff" d="M119.56,-67.92C150.96,-56.18 191.69,-40.97 220.92,-30.04"/>
<polygon fill="#63b8ff" stroke="#63b8ff" points="118.28,-64.66 110.14,-71.44 120.73,-71.21 118.28,-64.66"/>
</a>
</g>
</g>
<!-- Node7 -->
<g id="Node000007" class="node">
<title>Node7</title>
<g id="a_Node000007"><a xlink:href="coinbase__feed__callbacks_8cpp.html" target="_top" xlink:title=" ">
<polygon fill="white" stroke="#666666" points="517,-30 372,-30 372,0 517,0 517,-30"/>
<text text-anchor="start" x="380" y="-18" font-family="Helvetica,sans-Serif" font-size="10.00">venues/coinbase/coinbase</text>
<text text-anchor="middle" x="444.5" y="-7" font-family="Helvetica,sans-Serif" font-size="10.00">_feed_callbacks.cpp</text>
</a>
</g>
</g>
<!-- Node5&#45;&gt;Node7 -->
<g id="edge6_Node000005_Node000007" class="edge">
<title>Node5&#45;&gt;Node7</title>
<g id="a_edge6_Node000005_Node000007"><a xlink:title=" ">
<path fill="none" stroke="#63b8ff" d="M138.4,-69.25C143.5,-68.11 148.58,-67.01 153.5,-66 227.55,-50.74 312.88,-36.47 371.9,-27.11"/>
<polygon fill="#63b8ff" stroke="#63b8ff" points="137.57,-65.85 128.6,-71.49 139.13,-72.68 137.57,-65.85"/>
</a>
</g>
</g>
<!-- Node8 -->
<g id="Node000008" class="node">
<title>Node8</title>
<g id="a_Node000008"><a xlink:href="coinbase__venue_8cpp.html" target="_top" xlink:title=" ">
<polygon fill="white" stroke="#666666" points="145,-30 0,-30 0,0 145,0 145,-30"/>
<text text-anchor="start" x="8" y="-18" font-family="Helvetica,sans-Serif" font-size="10.00">venues/coinbase/coinbase</text>
<text text-anchor="middle" x="72.5" y="-7" font-family="Helvetica,sans-Serif" font-size="10.00">_venue.cpp</text>
</a>
</g>
</g>
<!-- Node5&#45;&gt;Node8 -->
<g id="edge7_Node000005_Node000008" class="edge">
<title>Node5&#45;&gt;Node8</title>
<g id="a_edge7_Node000005_Node000008"><a xlink:title=" ">
<path fill="none" stroke="#63b8ff" d="M72.5,-61.25C72.5,-50.81 72.5,-38.99 72.5,-30.04"/>
<polygon fill="#63b8ff" stroke="#63b8ff" points="69,-61.44 72.5,-71.44 76,-61.44 69,-61.44"/>
</a>
</g>
</g>
<!-- Node10 -->
<g id="Node000010" class="node">
<title>Node10</title>
<g id="a_Node000010"><a xlink:href="hyperliquid__exchange_8cpp.html" target="_top" xlink:title=" ">
<polygon fill="white" stroke="#666666" points="924,-30 777,-30 777,0 924,0 924,-30"/>
<text text-anchor="start" x="785" y="-18" font-family="Helvetica,sans-Serif" font-size="10.00">venues/hyperliquid</text>
<text text-anchor="middle" x="850.5" y="-7" font-family="Helvetica,sans-Serif" font-size="10.00">/hyperliquid_exchange.cpp</text>
</a>
</g>
</g>
<!-- Node9&#45;&gt;Node10 -->
<g id="edge9_Node000009_Node000010" class="edge">
<title>Node9&#45;&gt;Node10</title>
<g id="a_edge9_Node000009_Node000010"><a xlink:title=" ">
<path fill="none" stroke="#63b8ff" d="M703.66,-68.07C736.81,-56.31 779.96,-41.01 810.9,-30.04"/>
<polygon fill="#63b8ff" stroke="#63b8ff" points="702.42,-64.79 694.16,-71.44 704.76,-71.39 702.42,-64.79"/>
</a>
</g>
</g>
<!-- Node11 -->
<g id="Node000011" class="node">
<title>Node11</title>
<g id="a_Node000011"><a xlink:href="hyperliquid__venue_8cpp.html" target="_top" xlink:title=" ">
<polygon fill="white" stroke="#666666" points="719.5,-30 589.5,-30 589.5,0 719.5,0 719.5,-30"/>
<text text-anchor="start" x="597.5" y="-18" font-family="Helvetica,sans-Serif" font-size="10.00">venues/hyperliquid</text>
<text text-anchor="middle" x="654.5" y="-7" font-family="Helvetica,sans-Serif" font-size="10.00">/hyperliquid_venue.cpp</text>
</a>
</g>
</g>
<!-- Node9&#45;&gt;Node11 -->
<g id="edge10_Node000009_Node000011" class="edge">
<title>Node9&#45;&gt;Node11</title>
<g id="a_edge10_Node000009_Node000011"><a xlink:title=" ">
<path fill="none" stroke="#63b8ff" d="M654.5,-61.25C654.5,-50.81 654.5,-38.99 654.5,-30.04"/>
<polygon fill="#63b8ff" stroke="#63b8ff" points="651,-61.44 654.5,-71.44 658,-61.44 651,-61.44"/>
</a>
</g>
</g>
<!-- Node12&#45;&gt;Node6 -->
<g id="edge12_Node000012_Node000006" class="edge">
<title>Node12&#45;&gt;Node6</title>
<g id="a_edge12_Node000012_Node000006"><a xlink:title=" ">
<path fill="none" stroke="#63b8ff" d="M433.06,-68.52C393.81,-56.71 342.1,-41.15 305.18,-30.04"/>
<polygon fill="#63b8ff" stroke="#63b8ff" points="432.17,-71.91 442.75,-71.44 434.19,-65.2 432.17,-71.91"/>
</a>
</g>
</g>
<!-- Node12&#45;&gt;Node7 -->
<g id="edge13_Node000012_Node000007" class="edge">
<title>Node12&#45;&gt;Node7</title>
<g id="a_edge13_Node000012_Node000007"><a xlink:title=" ">
<path fill="none" stroke="#63b8ff" d="M474.86,-62.88C467.85,-52.07 459.69,-39.46 453.59,-30.04"/>
<polygon fill="#63b8ff" stroke="#63b8ff" points="472.02,-64.94 480.39,-71.44 477.9,-61.14 472.02,-64.94"/>
</a>
</g>
</g>
<!-- Node13&#45;&gt;Node9 -->
<g id="edge16_Node000013_Node000009" class="edge">
<title>Node13&#45;&gt;Node9</title>
<g id="a_edge16_Node000013_Node000009"><a xlink:title=" ">
<path fill="none" stroke="#63b8ff" d="M702.57,-135.57C691.18,-124.18 678.39,-111.39 668.86,-101.86"/>
<polygon fill="#63b8ff" stroke="#63b8ff" points="700.25,-138.2 709.79,-142.79 705.2,-133.25 700.25,-138.2"/>
</a>
</g>
</g>
<!-- Node13&#45;&gt;Node10 -->
<g id="edge15_Node000013_Node000010" class="edge">
<title>Node13&#45;&gt;Node10</title>
<g id="a_edge15_Node000013_Node000010"><a xlink:title=" ">
<path fill="none" stroke="#63b8ff" d="M797.35,-152.96C825.14,-145.34 854.68,-131.64 871.5,-107 887.59,-83.43 871.63,-49.26 860.08,-30.2"/>
<polygon fill="#63b8ff" stroke="#63b8ff" points="796.46,-149.57 787.61,-155.41 798.17,-156.36 796.46,-149.57"/>
</a>
</g>
</g>
<!-- Node14 -->
<g id="Node000014" class="node">
<title>Node14</title>
<g id="a_Node000014"><a xlink:href="hyperliquid__live__ws__feed_8cpp.html" target="_top" xlink:title=" ">
<polygon fill="white" stroke="#666666" points="862.5,-107 746.5,-107 746.5,-66 862.5,-66 862.5,-107"/>
<text text-anchor="start" x="754.5" y="-95" font-family="Helvetica,sans-Serif" font-size="10.00">venues/hyperliquid</text>
<text text-anchor="start" x="754.5" y="-84" font-family="Helvetica,sans-Serif" font-size="10.00">/hyperliquid_live_ws</text>
<text text-anchor="middle" x="804.5" y="-73" font-family="Helvetica,sans-Serif" font-size="10.00">_feed.cpp</text>
</a>
</g>
</g>
<!-- Node13&#45;&gt;Node14 -->
<g id="edge17_Node000013_Node000014" class="edge">
<title>Node13&#45;&gt;Node14</title>
<g id="a_edge17_Node000013_Node000014"><a xlink:title=" ">
<path fill="none" stroke="#63b8ff" d="M756.49,-135.51C765.89,-126.11 776.24,-115.76 784.93,-107.07"/>
<polygon fill="#63b8ff" stroke="#63b8ff" points="753.8,-133.25 749.21,-142.79 758.75,-138.2 753.8,-133.25"/>
</a>
</g>
</g>
</g>
</svg>
