<?xml version="1.0" encoding="UTF-8" standalone="no"?>
<!DOCTYPE svg PUBLIC "-//W3C//DTD SVG 1.1//EN"
 "http://www.w3.org/Graphics/SVG/1.1/DTD/svg11.dtd">
<!-- Generated by graphviz version 2.43.0 (0)
 -->
<!-- Title: slick::sim::Order Pages: 1 -->
<!--zoomable 1183 -->

<svg id="main" version="1.1" xmlns="http://www.w3.org/2000/svg" xmlns:xlink="http://www.w3.org/1999/xlink" xml:space="preserve" onload="init(evt)">
<style type="text/css"><![CDATA[
.node, .edge {opacity: 0.7;}
.node.selected, .edge.selected {opacity: 1;}
.edge:hover path { stroke: red; }
.edge:hover polygon { stroke: red; fill: red; }
]]></style>

<defs>
  <circle id="rim" cx="0" cy="0" r="7"/>
  <circle id="rim2" cx="0" cy="0" r="3.5"/>
  <g id="zoomPlus">
    <use xlink:href="#rim" fill="#404040"><set attributeName="fill" to="#808080" begin="zoomplus.mouseover" end="zoomplus.mouseout"/></use>
    <path d="M-4,0h8M0,-4v8" fill="none" stroke="white" stroke-width="1.5" pointer-events="none"/>
  </g>
  <g id="zoomMin">
    <use xlink:href="#rim" fill="#404040"><set attributeName="fill" to="#808080" begin="zoomminus.mouseover" end="zoomminus.mouseout"/></use>
    <path d="M-4,0h8" fill="none" stroke="white" stroke-width="1.5" pointer-events="none"/>
  </g>
  <g id="arrowUp" transform="translate(30 24)">
    <use xlink:href="#rim"/>
    <path pointer-events="none" fill="none" stroke="white" stroke-width="1.5" d="M0,-3.0v7 M-2.5,-0.5L0,-3.0L2.5,-0.5"/>
  </g>
  <g id="arrowRight" transform="rotate(90) translate(36 -43)">
    <use xlink:href="#rim"/>
    <path pointer-events="none" fill="none" stroke="white" stroke-width="1.5" d="M0,-3.0v7 M-2.5,-0.5L0,-3.0L2.5,-0.5"/>
  </g>
  <g id="arrowDown" transform="rotate(180) translate(-30 -48)">
    <use xlink:href="#rim"/>
    <path pointer-events="none" fill="none" stroke="white" stroke-width="1.5" d="M0,-3.0v7 M-2.5,-0.5L0,-3.0L2.5,-0.5"/>
  </g>
  <g id="arrowLeft" transform="rotate(270) translate(-36 17)">
    <use xlink:href="#rim"/>
    <path pointer-events="none" fill="none" stroke="white" stroke-width="1.5" d="M0,-3.0v7 M-2.5,-0.5L0,-3.0L2.5,-0.5"/>
  </g>
  <g id="resetDef">
    <use xlink:href="#rim2" fill="#404040"><set attributeName="fill" to="#808080" begin="reset.mouseover" end="reset.mouseout"/></use>
  </g>
</defs>
<script type="application/ecmascript">
var viewWidth = 399;
var viewHeight = 1183;
var sectionId = 'dynsection-1';
</script>
<script type="application/ecmascript" xlink:href="svg.min.js"/>
<svg id="graph" class="graph">
<g id="viewport">
<title>slick::sim::Order</title>
<!-- Node1 -->
<g id="Node000001" class="node">
<title>Node1</title>
<g id="a_Node000001"><a xlink:title=" ">
<polygon fill="#999999" stroke="transparent" points="311.5,-319 179.5,-319 179.5,0 311.5,0 311.5,-319"/>
<text text-anchor="start" x="205.5" y="-306.5" font-family="Helvetica,sans-Serif" font-size="10.00">slick::sim::Order</text>
<text text-anchor="start" x="183.5" y="-291.5" font-family="Helvetica,sans-Serif" font-size="10.00">+</text>
<text text-anchor="start" x="196.5" y="-291.5" font-family="Helvetica,sans-Serif" font-size="10.00">id</text>
<text text-anchor="start" x="183.5" y="-276.5" font-family="Helvetica,sans-Serif" font-size="10.00">+</text>
<text text-anchor="start" x="196.5" y="-276.5" font-family="Helvetica,sans-Serif" font-size="10.00">priority</text>
<text text-anchor="start" x="183.5" y="-261.5" font-family="Helvetica,sans-Serif" font-size="10.00">+</text>
<text text-anchor="start" x="196.5" y="-261.5" font-family="Helvetica,sans-Serif" font-size="10.00">side</text>
<text text-anchor="start" x="183.5" y="-246.5" font-family="Helvetica,sans-Serif" font-size="10.00">+</text>
<text text-anchor="start" x="196.5" y="-246.5" font-family="Helvetica,sans-Serif" font-size="10.00">type</text>
<text text-anchor="start" x="183.5" y="-231.5" font-family="Helvetica,sans-Serif" font-size="10.00">+</text>
<text text-anchor="start" x="196.5" y="-231.5" font-family="Helvetica,sans-Serif" font-size="10.00">status</text>
<text text-anchor="start" x="183.5" y="-216.5" font-family="Helvetica,sans-Serif" font-size="10.00">+</text>
<text text-anchor="start" x="196.5" y="-216.5" font-family="Helvetica,sans-Serif" font-size="10.00">time_in_force</text>
<text text-anchor="start" x="183.5" y="-201.5" font-family="Helvetica,sans-Serif" font-size="10.00">+</text>
<text text-anchor="start" x="196.5" y="-201.5" font-family="Helvetica,sans-Serif" font-size="10.00">product_type</text>
<text text-anchor="start" x="183.5" y="-186.5" font-family="Helvetica,sans-Serif" font-size="10.00">+</text>
<text text-anchor="start" x="196.5" y="-186.5" font-family="Helvetica,sans-Serif" font-size="10.00">post_only</text>
<text text-anchor="start" x="183.5" y="-171.5" font-family="Helvetica,sans-Serif" font-size="10.00">+</text>
<text text-anchor="start" x="196.5" y="-171.5" font-family="Helvetica,sans-Serif" font-size="10.00">pending_cancel</text>
<text text-anchor="start" x="183.5" y="-156.5" font-family="Helvetica,sans-Serif" font-size="10.00">+</text>
<text text-anchor="start" x="196.5" y="-156.5" font-family="Helvetica,sans-Serif" font-size="10.00">size_in_quote</text>
<text text-anchor="start" x="196.5" y="-141.5" font-family="Helvetica,sans-Serif" font-size="10.00">and 16 more...</text>
<text text-anchor="start" x="183.5" y="-126.5" font-family="Helvetica,sans-Serif" font-size="10.00">+</text>
<text text-anchor="start" x="196.5" y="-126.5" font-family="Helvetica,sans-Serif" font-size="10.00">resetFillAccounting()</text>
<text text-anchor="start" x="183.5" y="-111.5" font-family="Helvetica,sans-Serif" font-size="10.00">+</text>
<text text-anchor="start" x="196.5" y="-111.5" font-family="Helvetica,sans-Serif" font-size="10.00">Order()</text>
<text text-anchor="start" x="183.5" y="-96.5" font-family="Helvetica,sans-Serif" font-size="10.00">+</text>
<text text-anchor="start" x="196.5" y="-96.5" font-family="Helvetica,sans-Serif" font-size="10.00">price_double()</text>
<text text-anchor="start" x="183.5" y="-81.5" font-family="Helvetica,sans-Serif" font-size="10.00">+</text>
<text text-anchor="start" x="196.5" y="-81.5" font-family="Helvetica,sans-Serif" font-size="10.00">qty_double()</text>
<text text-anchor="start" x="183.5" y="-66.5" font-family="Helvetica,sans-Serif" font-size="10.00">+</text>
<text text-anchor="start" x="196.5" y="-66.5" font-family="Helvetica,sans-Serif" font-size="10.00">cum_qty_double()</text>
<text text-anchor="start" x="183.5" y="-51.5" font-family="Helvetica,sans-Serif" font-size="10.00">+</text>
<text text-anchor="start" x="196.5" y="-51.5" font-family="Helvetica,sans-Serif" font-size="10.00">leaves_qty_double()</text>
<text text-anchor="start" x="183.5" y="-36.5" font-family="Helvetica,sans-Serif" font-size="10.00">+</text>
<text text-anchor="start" x="196.5" y="-36.5" font-family="Helvetica,sans-Serif" font-size="10.00">last_fill_qty_double()</text>
<text text-anchor="start" x="183.5" y="-21.5" font-family="Helvetica,sans-Serif" font-size="10.00">+</text>
<text text-anchor="start" x="196.5" y="-21.5" font-family="Helvetica,sans-Serif" font-size="10.00">last_fill_price_double()</text>
<text text-anchor="start" x="183.5" y="-6.5" font-family="Helvetica,sans-Serif" font-size="10.00">+</text>
<text text-anchor="start" x="196.5" y="-6.5" font-family="Helvetica,sans-Serif" font-size="10.00">avg_fill_price_double()</text>
<polygon fill="#666666" stroke="#666666" points="179.5,-301.5 179.5,-301.5 311.5,-301.5 311.5,-301.5 179.5,-301.5"/>
<polygon fill="#666666" stroke="#666666" points="179.5,-136.5 179.5,-136.5 194.5,-136.5 194.5,-136.5 179.5,-136.5"/>
<polygon fill="#666666" stroke="#666666" points="194.5,-136.5 194.5,-136.5 311.5,-136.5 311.5,-136.5 194.5,-136.5"/>
<polygon fill="none" stroke="#666666" points="179.5,0 179.5,-319 311.5,-319 311.5,0 179.5,0"/>
</a>
</g>
</g>
<!-- Node2 -->
<g id="Node000002" class="node">
<title>Node2</title>
<g id="a_Node000002"><a xlink:href="structslick_1_1sim_1_1OrderIdentity.html" target="_top" xlink:title="The four identity fields every order carries, in the exact order and width of the header that opens a...">
<polygon fill="white" stroke="transparent" points="254.5,-437 126.5,-437 126.5,-388 254.5,-388 254.5,-437"/>
<text text-anchor="start" x="131.5" y="-424.5" font-family="Helvetica,sans-Serif" font-size="10.00">slick::sim::OrderIdentity</text>
<text text-anchor="start" x="188.5" y="-409.5" font-family="Helvetica,sans-Serif" font-size="10.00"> </text>
<text text-anchor="start" x="188.5" y="-394.5" font-family="Helvetica,sans-Serif" font-size="10.00"> </text>
<polygon fill="#666666" stroke="#666666" points="126.5,-419.5 126.5,-419.5 254.5,-419.5 254.5,-419.5 126.5,-419.5"/>
<polygon fill="#666666" stroke="#666666" points="126.5,-404.5 126.5,-404.5 254.5,-404.5 254.5,-404.5 126.5,-404.5"/>
<polygon fill="none" stroke="#666666" points="126.5,-388 126.5,-437 254.5,-437 254.5,-388 126.5,-388"/>
</a>
</g>
</g>
<!-- Node2&#45;&gt;Node1 -->
<g id="edge1_Node000001_Node000002" class="edge">
<title>Node2&#45;&gt;Node1</title>
<g id="a_edge1_Node000001_Node000002"><a xlink:title=" ">
<path fill="none" stroke="#63b8ff" d="M197.85,-377.97C201.38,-361.84 205.9,-341.22 210.74,-319.12"/>
<polygon fill="none" stroke="#63b8ff" points="194.4,-377.37 195.67,-387.89 201.23,-378.87 194.4,-377.37"/>
</a>
</g>
</g>
<!-- Node3 -->
<g id="Node000003" class="node">
<title>Node3</title>
<g id="a_Node000003"><a xlink:href="classslick_1_1sim_1_1utils_1_1fixed__string.html" target="_top" xlink:title=" ">
<polygon fill="white" stroke="transparent" points="115,-817 0,-817 0,-506 115,-506 115,-817"/>
<text text-anchor="start" x="12.5" y="-804.5" font-family="Helvetica,sans-Serif" font-size="10.00">slick::sim::utils::</text>
<text text-anchor="start" x="12.5" y="-793.5" font-family="Helvetica,sans-Serif" font-size="10.00">fixed_string&lt; 32 &gt;</text>
<text text-anchor="start" x="56" y="-778.5" font-family="Helvetica,sans-Serif" font-size="10.00"> </text>
<text text-anchor="start" x="4.5" y="-763.5" font-family="Helvetica,sans-Serif" font-size="10.00">+</text>
<text text-anchor="start" x="17.5" y="-763.5" font-family="Helvetica,sans-Serif" font-size="10.00">fixed_string()</text>
<text text-anchor="start" x="4.5" y="-748.5" font-family="Helvetica,sans-Serif" font-size="10.00">+</text>
<text text-anchor="start" x="17.5" y="-748.5" font-family="Helvetica,sans-Serif" font-size="10.00">fixed_string()</text>
<text text-anchor="start" x="4.5" y="-733.5" font-family="Helvetica,sans-Serif" font-size="10.00">+</text>
<text text-anchor="start" x="17.5" y="-733.5" font-family="Helvetica,sans-Serif" font-size="10.00">fixed_string()</text>
<text text-anchor="start" x="4.5" y="-718.5" font-family="Helvetica,sans-Serif" font-size="10.00">+</text>
<text text-anchor="start" x="17.5" y="-718.5" font-family="Helvetica,sans-Serif" font-size="10.00">operator=()</text>
<text text-anchor="start" x="4.5" y="-703.5" font-family="Helvetica,sans-Serif" font-size="10.00">+</text>
<text text-anchor="start" x="17.5" y="-703.5" font-family="Helvetica,sans-Serif" font-size="10.00">operator=()</text>
<text text-anchor="start" x="4.5" y="-688.5" font-family="Helvetica,sans-Serif" font-size="10.00">+</text>
<text text-anchor="start" x="17.5" y="-688.5" font-family="Helvetica,sans-Serif" font-size="10.00">assign()</text>
<text text-anchor="start" x="4.5" y="-673.5" font-family="Helvetica,sans-Serif" font-size="10.00">+</text>
<text text-anchor="start" x="17.5" y="-673.5" font-family="Helvetica,sans-Serif" font-size="10.00">clear()</text>
<text text-anchor="start" x="4.5" y="-658.5" font-family="Helvetica,sans-Serif" font-size="10.00">+</text>
<text text-anchor="start" x="17.5" y="-658.5" font-family="Helvetica,sans-Serif" font-size="10.00">c_str()</text>
<text text-anchor="start" x="4.5" y="-643.5" font-family="Helvetica,sans-Serif" font-size="10.00">+</text>
<text text-anchor="start" x="17.5" y="-643.5" font-family="Helvetica,sans-Serif" font-size="10.00">data()</text>
<text text-anchor="start" x="4.5" y="-628.5" font-family="Helvetica,sans-Serif" font-size="10.00">+</text>
<text text-anchor="start" x="17.5" y="-628.5" font-family="Helvetica,sans-Serif" font-size="10.00">data()</text>
<text text-anchor="start" x="4.5" y="-613.5" font-family="Helvetica,sans-Serif" font-size="10.00">+</text>
<text text-anchor="start" x="17.5" y="-613.5" font-family="Helvetica,sans-Serif" font-size="10.00">size()</text>
<text text-anchor="start" x="4.5" y="-598.5" font-family="Helvetica,sans-Serif" font-size="10.00">+</text>
<text text-anchor="start" x="17.5" y="-598.5" font-family="Helvetica,sans-Serif" font-size="10.00">empty()</text>
<text text-anchor="start" x="4.5" y="-583.5" font-family="Helvetica,sans-Serif" font-size="10.00">+</text>
<text text-anchor="start" x="17.5" y="-583.5" font-family="Helvetica,sans-Serif" font-size="10.00">view()</text>
<text text-anchor="start" x="4.5" y="-568.5" font-family="Helvetica,sans-Serif" font-size="10.00">+</text>
<text text-anchor="start" x="17.5" y="-568.5" font-family="Helvetica,sans-Serif" font-size="10.00">operator std::string</text>
<text text-anchor="start" x="17.5" y="-557.5" font-family="Helvetica,sans-Serif" font-size="10.00">_view()</text>
<text text-anchor="start" x="4.5" y="-542.5" font-family="Helvetica,sans-Serif" font-size="10.00">+</text>
<text text-anchor="start" x="17.5" y="-542.5" font-family="Helvetica,sans-Serif" font-size="10.00">str()</text>
<text text-anchor="start" x="4.5" y="-527.5" font-family="Helvetica,sans-Serif" font-size="10.00">+</text>
<text text-anchor="start" x="17.5" y="-527.5" font-family="Helvetica,sans-Serif" font-size="10.00">capacity()</text>
<text text-anchor="start" x="4.5" y="-512.5" font-family="Helvetica,sans-Serif" font-size="10.00">+</text>
<text text-anchor="start" x="17.5" y="-512.5" font-family="Helvetica,sans-Serif" font-size="10.00">buffer_size()</text>
<polygon fill="#666666" stroke="#666666" points="0.5,-788.5 0.5,-788.5 115.5,-788.5 115.5,-788.5 0.5,-788.5"/>
<polygon fill="#666666" stroke="#666666" points="0.5,-773.5 0.5,-773.5 115.5,-773.5 115.5,-773.5 0.5,-773.5"/>
<polygon fill="none" stroke="#666666" points="0,-506 0,-817 115,-817 115,-506 0,-506"/>
</a>
</g>
</g>
<!-- Node3&#45;&gt;Node2 -->
<g id="edge2_Node000002_Node000003" class="edge">
<title>Node3&#45;&gt;Node2</title>
<g id="a_edge2_Node000002_Node000003"><a xlink:title=" ">
<path fill="none" stroke="#63b8ff" d="M108.04,-505.95C116.87,-488 126.99,-470.58 138.5,-455 140.98,-451.65 143.79,-448.41 146.79,-445.34"/>
<polygon fill="none" stroke="#63b8ff" points="146.87,-445.27 148.53,-438.25 155.65,-437.09 153.98,-444.11 146.87,-445.27"/>
</a>
</g>
<text text-anchor="middle" x="162.5" y="-469" font-family="Helvetica,sans-Serif" font-size="10.00" fill="grey"> +symbol</text>
</g>
<!-- Node4 -->
<g id="Node000004" class="node">
<title>Node4</title>
<g id="a_Node000004"><a xlink:href="classslick_1_1sim_1_1utils_1_1fixed__string.html" target="_top" xlink:title="A null&#45;terminated character buffer of fixed capacity, stored inline.">
<polygon fill="white" stroke="transparent" points="181,-1175 66,-1175 66,-864 181,-864 181,-1175"/>
<text text-anchor="start" x="80.5" y="-1162.5" font-family="Helvetica,sans-Serif" font-size="10.00">slick::sim::utils::</text>
<text text-anchor="start" x="80.5" y="-1151.5" font-family="Helvetica,sans-Serif" font-size="10.00">fixed_string&lt; N &gt;</text>
<text text-anchor="start" x="122" y="-1136.5" font-family="Helvetica,sans-Serif" font-size="10.00"> </text>
<text text-anchor="start" x="70.5" y="-1121.5" font-family="Helvetica,sans-Serif" font-size="10.00">+</text>
<text text-anchor="start" x="83.5" y="-1121.5" font-family="Helvetica,sans-Serif" font-size="10.00">fixed_string()</text>
<text text-anchor="start" x="70.5" y="-1106.5" font-family="Helvetica,sans-Serif" font-size="10.00">+</text>
<text text-anchor="start" x="83.5" y="-1106.5" font-family="Helvetica,sans-Serif" font-size="10.00">fixed_string()</text>
<text text-anchor="start" x="70.5" y="-1091.5" font-family="Helvetica,sans-Serif" font-size="10.00">+</text>
<text text-anchor="start" x="83.5" y="-1091.5" font-family="Helvetica,sans-Serif" font-size="10.00">fixed_string()</text>
<text text-anchor="start" x="70.5" y="-1076.5" font-family="Helvetica,sans-Serif" font-size="10.00">+</text>
<text text-anchor="start" x="83.5" y="-1076.5" font-family="Helvetica,sans-Serif" font-size="10.00">operator=()</text>
<text text-anchor="start" x="70.5" y="-1061.5" font-family="Helvetica,sans-Serif" font-size="10.00">+</text>
<text text-anchor="start" x="83.5" y="-1061.5" font-family="Helvetica,sans-Serif" font-size="10.00">operator=()</text>
<text text-anchor="start" x="70.5" y="-1046.5" font-family="Helvetica,sans-Serif" font-size="10.00">+</text>
<text text-anchor="start" x="83.5" y="-1046.5" font-family="Helvetica,sans-Serif" font-size="10.00">assign()</text>
<text text-anchor="start" x="70.5" y="-1031.5" font-family="Helvetica,sans-Serif" font-size="10.00">+</text>
<text text-anchor="start" x="83.5" y="-1031.5" font-family="Helvetica,sans-Serif" font-size="10.00">clear()</text>
<text text-anchor="start" x="70.5" y="-1016.5" font-family="Helvetica,sans-Serif" font-size="10.00">+</text>
<text text-anchor="start" x="83.5" y="-1016.5" font-family="Helvetica,sans-Serif" font-size="10.00">c_str()</text>
<text text-anchor="start" x="70.5" y="-1001.5" font-family="Helvetica,sans-Serif" font-size="10.00">+</text>
<text text-anchor="start" x="83.5" y="-1001.5" font-family="Helvetica,sans-Serif" font-size="10.00">data()</text>
<text text-anchor="start" x="70.5" y="-986.5" font-family="Helvetica,sans-Serif" font-size="10.00">+</text>
<text text-anchor="start" x="83.5" y="-986.5" font-family="Helvetica,sans-Serif" font-size="10.00">data()</text>
<text text-anchor="start" x="70.5" y="-971.5" font-family="Helvetica,sans-Serif" font-size="10.00">+</text>
<text text-anchor="start" x="83.5" y="-971.5" font-family="Helvetica,sans-Serif" font-size="10.00">size()</text>
<text text-anchor="start" x="70.5" y="-956.5" font-family="Helvetica,sans-Serif" font-size="10.00">+</text>
<text text-anchor="start" x="83.5" y="-956.5" font-family="Helvetica,sans-Serif" font-size="10.00">empty()</text>
<text text-anchor="start" x="70.5" y="-941.5" font-family="Helvetica,sans-Serif" font-size="10.00">+</text>
<text text-anchor="start" x="83.5" y="-941.5" font-family="Helvetica,sans-Serif" font-size="10.00">view()</text>
<text text-anchor="start" x="70.5" y="-926.5" font-family="Helvetica,sans-Serif" font-size="10.00">+</text>
<text text-anchor="start" x="83.5" y="-926.5" font-family="Helvetica,sans-Serif" font-size="10.00">operator std::string</text>
<text text-anchor="start" x="83.5" y="-915.5" font-family="Helvetica,sans-Serif" font-size="10.00">_view()</text>
<text text-anchor="start" x="70.5" y="-900.5" font-family="Helvetica,sans-Serif" font-size="10.00">+</text>
<text text-anchor="start" x="83.5" y="-900.5" font-family="Helvetica,sans-Serif" font-size="10.00">str()</text>
<text text-anchor="start" x="70.5" y="-885.5" font-family="Helvetica,sans-Serif" font-size="10.00">+</text>
<text text-anchor="start" x="83.5" y="-885.5" font-family="Helvetica,sans-Serif" font-size="10.00">capacity()</text>
<text text-anchor="start" x="70.5" y="-870.5" font-family="Helvetica,sans-Serif" font-size="10.00">+</text>
<text text-anchor="start" x="83.5" y="-870.5" font-family="Helvetica,sans-Serif" font-size="10.00">buffer_size()</text>
<polygon fill="#666666" stroke="#666666" points="66.5,-1146.5 66.5,-1146.5 181.5,-1146.5 181.5,-1146.5 66.5,-1146.5"/>
<polygon fill="#666666" stroke="#666666" points="66.5,-1131.5 66.5,-1131.5 181.5,-1131.5 181.5,-1131.5 66.5,-1131.5"/>
<polygon fill="none" stroke="#666666" points="66,-864 66,-1175 181,-1175 181,-864 66,-864"/>
</a>
</g>
</g>
<!-- Node4&#45;&gt;Node3 -->
<g id="edge3_Node000003_Node000004" class="edge">
<title>Node4&#45;&gt;Node3</title>
<g id="a_edge3_Node000003_Node000004"><a xlink:title=" ">
<path fill="none" stroke="orange" d="M92.95,-853.72C90.7,-841.56 88.43,-829.32 86.18,-817.22"/>
<polygon fill="orange" stroke="orange" points="89.58,-854.71 94.84,-863.91 96.46,-853.44 89.58,-854.71"/>
</a>
</g>
<text text-anchor="middle" x="109.5" y="-838" font-family="Helvetica,sans-Serif" font-size="10.00" fill="grey"> &lt; 32 &gt;</text>
</g>
<!-- Node5 -->
<g id="Node000005" class="node">
<title>Node5</title>
<g id="a_Node000005"><a xlink:href="classslick_1_1sim_1_1utils_1_1fixed__string.html" target="_top" xlink:title=" ">
<polygon fill="white" stroke="transparent" points="248,-817 133,-817 133,-506 248,-506 248,-817"/>
<text text-anchor="start" x="145.5" y="-804.5" font-family="Helvetica,sans-Serif" font-size="10.00">slick::sim::utils::</text>
<text text-anchor="start" x="145.5" y="-793.5" font-family="Helvetica,sans-Serif" font-size="10.00">fixed_string&lt; 37 &gt;</text>
<text text-anchor="start" x="189" y="-778.5" font-family="Helvetica,sans-Serif" font-size="10.00"> </text>
<text text-anchor="start" x="137.5" y="-763.5" font-family="Helvetica,sans-Serif" font-size="10.00">+</text>
<text text-anchor="start" x="150.5" y="-763.5" font-family="Helvetica,sans-Serif" font-size="10.00">fixed_string()</text>
<text text-anchor="start" x="137.5" y="-748.5" font-family="Helvetica,sans-Serif" font-size="10.00">+</text>
<text text-anchor="start" x="150.5" y="-748.5" font-family="Helvetica,sans-Serif" font-size="10.00">fixed_string()</text>
<text text-anchor="start" x="137.5" y="-733.5" font-family="Helvetica,sans-Serif" font-size="10.00">+</text>
<text text-anchor="start" x="150.5" y="-733.5" font-family="Helvetica,sans-Serif" font-size="10.00">fixed_string()</text>
<text text-anchor="start" x="137.5" y="-718.5" font-family="Helvetica,sans-Serif" font-size="10.00">+</text>
<text text-anchor="start" x="150.5" y="-718.5" font-family="Helvetica,sans-Serif" font-size="10.00">operator=()</text>
<text text-anchor="start" x="137.5" y="-703.5" font-family="Helvetica,sans-Serif" font-size="10.00">+</text>
<text text-anchor="start" x="150.5" y="-703.5" font-family="Helvetica,sans-Serif" font-size="10.00">operator=()</text>
<text text-anchor="start" x="137.5" y="-688.5" font-family="Helvetica,sans-Serif" font-size="10.00">+</text>
<text text-anchor="start" x="150.5" y="-688.5" font-family="Helvetica,sans-Serif" font-size="10.00">assign()</text>
<text text-anchor="start" x="137.5" y="-673.5" font-family="Helvetica,sans-Serif" font-size="10.00">+</text>
<text text-anchor="start" x="150.5" y="-673.5" font-family="Helvetica,sans-Serif" font-size="10.00">clear()</text>
<text text-anchor="start" x="137.5" y="-658.5" font-family="Helvetica,sans-Serif" font-size="10.00">+</text>
<text text-anchor="start" x="150.5" y="-658.5" font-family="Helvetica,sans-Serif" font-size="10.00">c_str()</text>
<text text-anchor="start" x="137.5" y="-643.5" font-family="Helvetica,sans-Serif" font-size="10.00">+</text>
<text text-anchor="start" x="150.5" y="-643.5" font-family="Helvetica,sans-Serif" font-size="10.00">data()</text>
<text text-anchor="start" x="137.5" y="-628.5" font-family="Helvetica,sans-Serif" font-size="10.00">+</text>
<text text-anchor="start" x="150.5" y="-628.5" font-family="Helvetica,sans-Serif" font-size="10.00">data()</text>
<text text-anchor="start" x="137.5" y="-613.5" font-family="Helvetica,sans-Serif" font-size="10.00">+</text>
<text text-anchor="start" x="150.5" y="-613.5" font-family="Helvetica,sans-Serif" font-size="10.00">size()</text>
<text text-anchor="start" x="137.5" y="-598.5" font-family="Helvetica,sans-Serif" font-size="10.00">+</text>
<text text-anchor="start" x="150.5" y="-598.5" font-family="Helvetica,sans-Serif" font-size="10.00">empty()</text>
<text text-anchor="start" x="137.5" y="-583.5" font-family="Helvetica,sans-Serif" font-size="10.00">+</text>
<text text-anchor="start" x="150.5" y="-583.5" font-family="Helvetica,sans-Serif" font-size="10.00">view()</text>
<text text-anchor="start" x="137.5" y="-568.5" font-family="Helvetica,sans-Serif" font-size="10.00">+</text>
<text text-anchor="start" x="150.5" y="-568.5" font-family="Helvetica,sans-Serif" font-size="10.00">operator std::string</text>
<text text-anchor="start" x="150.5" y="-557.5" font-family="Helvetica,sans-Serif" font-size="10.00">_view()</text>
<text text-anchor="start" x="137.5" y="-542.5" font-family="Helvetica,sans-Serif" font-size="10.00">+</text>
<text text-anchor="start" x="150.5" y="-542.5" font-family="Helvetica,sans-Serif" font-size="10.00">str()</text>
<text text-anchor="start" x="137.5" y="-527.5" font-family="Helvetica,sans-Serif" font-size="10.00">+</text>
<text text-anchor="start" x="150.5" y="-527.5" font-family="Helvetica,sans-Serif" font-size="10.00">capacity()</text>
<text text-anchor="start" x="137.5" y="-512.5" font-family="Helvetica,sans-Serif" font-size="10.00">+</text>
<text text-anchor="start" x="150.5" y="-512.5" font-family="Helvetica,sans-Serif" font-size="10.00">buffer_size()</text>
<polygon fill="#666666" stroke="#666666" points="133.5,-788.5 133.5,-788.5 248.5,-788.5 248.5,-788.5 133.5,-788.5"/>
<polygon fill="#666666" stroke="#666666" points="133.5,-773.5 133.5,-773.5 248.5,-773.5 248.5,-773.5 133.5,-773.5"/>
<polygon fill="none" stroke="#666666" points="133,-506 133,-817 248,-817 248,-506 133,-506"/>
</a>
</g>
</g>
<!-- Node4&#45;&gt;Node5 -->
<g id="edge5_Node000005_Node000004" class="edge">
<title>Node4&#45;&gt;Node5</title>
<g id="a_edge5_Node000005_Node000004"><a xlink:title=" ">
<path fill="none" stroke="orange" d="M154.51,-853.72C156.8,-841.56 159.1,-829.32 161.38,-817.22"/>
<polygon fill="orange" stroke="orange" points="151,-853.43 152.59,-863.91 157.88,-854.73 151,-853.43"/>
</a>
</g>
<text text-anchor="middle" x="176.5" y="-838" font-family="Helvetica,sans-Serif" font-size="10.00" fill="grey"> &lt; 37 &gt;</text>
</g>
<!-- Node5&#45;&gt;Node2 -->
<g id="edge4_Node000002_Node000005" class="edge">
<title>Node5&#45;&gt;Node2</title>
<g id="a_edge4_Node000002_Node000005"><a xlink:title=" ">
<path fill="none" stroke="#63b8ff" d="M190.5,-505.82C190.5,-484.86 190.5,-465.18 190.5,-449.42"/>
<polygon fill="none" stroke="#63b8ff" points="190.5,-449.16 186.5,-443.16 190.5,-437.16 194.5,-443.16 190.5,-449.16"/>
</a>
</g>
<text text-anchor="middle" x="232.5" y="-480" font-family="Helvetica,sans-Serif" font-size="10.00" fill="grey"> +client_order_id</text>
<text text-anchor="middle" x="232.5" y="-469" font-family="Helvetica,sans-Serif" font-size="10.00" fill="grey">+order_id</text>
<text text-anchor="middle" x="232.5" y="-458" font-family="Helvetica,sans-Serif" font-size="10.00" fill="grey">+user_id</text>
</g>
<!-- Node6 -->
<g id="Node000006" class="node">
<title>Node6</title>
<g id="a_Node000006"><a xlink:title=" ">
<polygon fill="white" stroke="transparent" points="338,-437 279,-437 279,-388 338,-388 338,-437"/>
<text text-anchor="start" x="284.5" y="-424.5" font-family="Helvetica,sans-Serif" font-size="10.00">std::string</text>
<text text-anchor="start" x="307" y="-409.5" font-family="Helvetica,sans-Serif" font-size="10.00"> </text>
<text text-anchor="start" x="307" y="-394.5" font-family="Helvetica,sans-Serif" font-size="10.00"> </text>
<polygon fill="#666666" stroke="#666666" points="279.5,-419.5 279.5,-419.5 338.5,-419.5 338.5,-419.5 279.5,-419.5"/>
<polygon fill="#666666" stroke="#666666" points="279.5,-404.5 279.5,-404.5 338.5,-404.5 338.5,-404.5 279.5,-404.5"/>
<polygon fill="none" stroke="#666666" points="279,-388 279,-437 338,-437 338,-388 279,-388"/>
</a>
</g>
</g>
<!-- Node6&#45;&gt;Node1 -->
<g id="edge6_Node000001_Node000006" class="edge">
<title>Node6&#45;&gt;Node1</title>
<g id="a_edge6_Node000001_Node000006"><a xlink:title=" ">
<path fill="none" stroke="#63b8ff" d="M302.57,-387.89C298.92,-373.34 293.88,-353.24 288.28,-330.95"/>
<polygon fill="none" stroke="#63b8ff" points="288.24,-330.76 282.89,-325.92 285.31,-319.12 290.65,-323.97 288.24,-330.76"/>
</a>
</g>
<text text-anchor="middle" x="344" y="-362" font-family="Helvetica,sans-Serif" font-size="10.00" fill="grey"> +cancel_message</text>
<text text-anchor="middle" x="344" y="-351" font-family="Helvetica,sans-Serif" font-size="10.00" fill="grey">+end_time</text>
<text text-anchor="middle" x="344" y="-340" font-family="Helvetica,sans-Serif" font-size="10.00" fill="grey">+reject_message</text>
</g>
<!-- Node7 -->
<g id="Node000007" class="node">
<title>Node7</title>
<g id="a_Node000007"><a xlink:title=" ">
<polygon fill="white" stroke="transparent" points="364.5,-691.5 266.5,-691.5 266.5,-631.5 364.5,-631.5 364.5,-691.5"/>
<text text-anchor="start" x="271.5" y="-679.5" font-family="Helvetica,sans-Serif" font-size="10.00">std::basic_string&lt;</text>
<text text-anchor="start" x="297" y="-668.5" font-family="Helvetica,sans-Serif" font-size="10.00"> Char &gt;</text>
<text text-anchor="start" x="313.5" y="-653.5" font-family="Helvetica,sans-Serif" font-size="10.00"> </text>
<text text-anchor="start" x="313.5" y="-638.5" font-family="Helvetica,sans-Serif" font-size="10.00"> </text>
<polygon fill="#666666" stroke="#666666" points="266.5,-663.5 266.5,-663.5 364.5,-663.5 364.5,-663.5 266.5,-663.5"/>
<polygon fill="#666666" stroke="#666666" points="266.5,-648.5 266.5,-648.5 364.5,-648.5 364.5,-648.5 266.5,-648.5"/>
<polygon fill="none" stroke="#666666" points="266.5,-631.5 266.5,-691.5 364.5,-691.5 364.5,-631.5 266.5,-631.5"/>
</a>
</g>
</g>
<!-- Node7&#45;&gt;Node6 -->
<g id="edge7_Node000006_Node000007" class="edge">
<title>Node7&#45;&gt;Node6</title>
<g id="a_edge7_Node000006_Node000007"><a xlink:title=" ">
<path fill="none" stroke="#63b8ff" d="M314.38,-621.04C312.91,-569.19 310.38,-479.75 309.17,-437.25"/>
<polygon fill="none" stroke="#63b8ff" points="310.89,-621.3 314.67,-631.2 317.88,-621.1 310.89,-621.3"/>
</a>
</g>
</g>
</g>
</svg>

<g id="navigator" transform="translate(0 0)" fill="#404254">
  <rect fill="#f2f5e9" fill-opacity="0.5" stroke="#606060" stroke-width=".5" x="0" y="0" width="60" height="60"/>
  <use id="zoomplus" xlink:href="#zoomPlus" x="17" y="9" onmousedown="handleZoom(evt,'in')"/>
  <use id="zoomminus" xlink:href="#zoomMin" x="42" y="9" onmousedown="handleZoom(evt,'out')"/>
  <use id="reset" xlink:href="#resetDef" x="30" y="36" onmousedown="handleReset()"/>
   <use id="arrowup" xlink:href="#arrowUp" x="0" y="0" onmousedown="handlePan(0,-1)"/>
  <use id="arrowright" xlink:href="#arrowRight" x="0" y="0" onmousedown="handlePan(1,0)"/>
  <use id="arrowdown" xlink:href="#arrowDown" x="0" y="0" onmousedown="handlePan(0,1)"/>
  <use id="arrowleft" xlink:href="#arrowLeft" x="0" y="0" onmousedown="handlePan(-1,0)"/>
</g>
<svg viewBox="0 0 15 15" width="100%" height="30px" preserveAspectRatio="xMaxYMin meet">
 <g id="arrow_out" transform="scale(0.3 0.3)">
  <a xlink:href="structslick_1_1sim_1_1Order__coll__graph_org.svg" target="_base">
   <rect id="button" ry="5" rx="5" y="6" x="6" height="38" width="38"
        fill="#f2f5e9" fill-opacity="0.5" stroke="#606060" stroke-width="1.0"/>
   <path id="arrow"
     d="M 11.500037,31.436501 C 11.940474,20.09759 22.043105,11.32322 32.158766,21.979434 L 37.068811,17.246167 C 37.068811,17.246167 37.088388,32 37.088388,32 L 22.160133,31.978069 C 22.160133,31.978069 26.997745,27.140456 26.997745,27.140456 C 18.528582,18.264221 13.291696,25.230495 11.500037,31.436501 z"
     style="fill:#404040;"/>
  </a>
 </g>
</svg>

<style type='text/css'>
<![CDATA[
[data-mouse-over-selected='false'] { opacity: 0.7; }
[data-mouse-over-selected='true']  { opacity: 1.0; }
]]>
</style>
<script type="application/ecmascript"><![CDATA[
document.addEventListener('DOMContentLoaded', (event) => {
  highlightEdges();
  highlightAdjacentNodes();
});
]]></script>
</svg>
