<?xml version="1.0" encoding="UTF-8" standalone="no"?>
<!DOCTYPE svg PUBLIC "-//W3C//DTD SVG 1.1//EN"
 "http://www.w3.org/Graphics/SVG/1.1/DTD/svg11.dtd">
<!-- Generated by graphviz version 2.43.0 (0)
 -->
<!-- Title: market_data_publisher/ws_md_publisher.hpp Pages: 1 -->
<!--zoomable 170 -->

<svg id="main" version="1.1" xmlns="http://www.w3.org/2000/svg" xmlns:xlink="http://www.w3.org/1999/xlink" xml:space="preserve" onload="init(evt)">
<style type="text/css"><![CDATA[
.node, .edge {opacity: 0.7;}
.node.selected, .edge.selected {opacity: 1;}
.edge:hover path { stroke: red; }
.edge:hover polygon { stroke: red; fill: red; }
]]></style>

<defs>
  <circle id="rim" cx="0" cy="0" r="7"/>
  <circle id="rim2" cx="0" cy="0" r="3.5"/>
  <g id="zoomPlus">
    <use xlink:href="#rim" fill="#404040"><set attributeName="fill" to="#808080" begin="zoomplus.mouseover" end="zoomplus.mouseout"/></use>
    <path d="M-4,0h8M0,-4v8" fill="none" stroke="white" stroke-width="1.5" pointer-events="none"/>
  </g>
  <g id="zoomMin">
    <use xlink:href="#rim" fill="#404040"><set attributeName="fill" to="#808080" begin="zoomminus.mouseover" end="zoomminus.mouseout"/></use>
    <path d="M-4,0h8" fill="none" stroke="white" stroke-width="1.5" pointer-events="none"/>
  </g>
  <g id="arrowUp" transform="translate(30 24)">
    <use xlink:href="#rim"/>
    <path pointer-events="none" fill="none" stroke="white" stroke-width="1.5" d="M0,-3.0v7 M-2.5,-0.5L0,-3.0L2.5,-0.5"/>
  </g>
  <g id="arrowRight" transform="rotate(90) translate(36 -43)">
    <use xlink:href="#rim"/>
    <path pointer-events="none" fill="none" stroke="white" stroke-width="1.5" d="M0,-3.0v7 M-2.5,-0.5L0,-3.0L2.5,-0.5"/>
  </g>
  <g id="arrowDown" transform="rotate(180) translate(-30 -48)">
    <use xlink:href="#rim"/>
    <path pointer-events="none" fill="none" stroke="white" stroke-width="1.5" d="M0,-3.0v7 M-2.5,-0.5L0,-3.0L2.5,-0.5"/>
  </g>
  <g id="arrowLeft" transform="rotate(270) translate(-36 17)">
    <use xlink:href="#rim"/>
    <path pointer-events="none" fill="none" stroke="white" stroke-width="1.5" d="M0,-3.0v7 M-2.5,-0.5L0,-3.0L2.5,-0.5"/>
  </g>
  <g id="resetDef">
    <use xlink:href="#rim2" fill="#404040"><set attributeName="fill" to="#808080" begin="reset.mouseover" end="reset.mouseout"/></use>
  </g>
</defs>
<script type="application/ecmascript">
var viewWidth = 838;
var viewHeight = 170;
var sectionId = 'dynsection-1';
</script>
<script type="application/ecmascript" xlink:href="svg.min.js"/>
<svg id="graph" class="graph">
<g id="viewport">
<title>market_data_publisher/ws_md_publisher.hpp</title>
<!-- Node1 -->
<g id="Node000001" class="node">
<title>Node1</title>
<g id="a_Node000001"><a xlink:title=" ">
<polygon fill="#999999" stroke="#666666" points="546.5,-162 418.5,-162 418.5,-132 546.5,-132 546.5,-162"/>
<text text-anchor="start" x="426.5" y="-150" font-family="Helvetica,sans-Serif" font-size="10.00">market_data_publisher</text>
<text text-anchor="middle" x="482.5" y="-139" font-family="Helvetica,sans-Serif" font-size="10.00">/ws_md_publisher.hpp</text>
</a>
</g>
</g>
<!-- Node2 -->
<g id="Node000002" class="node">
<title>Node2</title>
<g id="a_Node000002"><a xlink:href="coinbase__publisher_8hpp.html" target="_top" xlink:title=" ">
<polygon fill="white" stroke="#666666" points="390.5,-96 256.5,-96 256.5,-66 390.5,-66 390.5,-96"/>
<text text-anchor="start" x="264.5" y="-84" font-family="Helvetica,sans-Serif" font-size="10.00">market_data_publisher</text>
<text text-anchor="middle" x="323.5" y="-73" font-family="Helvetica,sans-Serif" font-size="10.00">/coinbase_publisher.hpp</text>
</a>
</g>
</g>
<!-- Node1&#45;&gt;Node2 -->
<g id="edge1_Node000001_Node000002" class="edge">
<title>Node1&#45;&gt;Node2</title>
<g id="a_edge1_Node000001_Node000002"><a xlink:title=" ">
<path fill="none" stroke="#63b8ff" d="M438.25,-128.19C413,-118.02 381.8,-105.47 358.31,-96.01"/>
<polygon fill="#63b8ff" stroke="#63b8ff" points="437.02,-131.47 447.61,-131.95 439.64,-124.97 437.02,-131.47"/>
</a>
</g>
</g>
<!-- Node6 -->
<g id="Node000006" class="node">
<title>Node6</title>
<g id="a_Node000006"><a xlink:href="hyperliquid__publisher_8hpp.html" target="_top" xlink:title=" ">
<polygon fill="white" stroke="#666666" points="555,-96 410,-96 410,-66 555,-66 555,-96"/>
<text text-anchor="start" x="418" y="-84" font-family="Helvetica,sans-Serif" font-size="10.00">market_data_publisher</text>
<text text-anchor="middle" x="482.5" y="-73" font-family="Helvetica,sans-Serif" font-size="10.00">/hyperliquid_publisher.hpp</text>
</a>
</g>
</g>
<!-- Node1&#45;&gt;Node6 -->
<g id="edge5_Node000001_Node000006" class="edge">
<title>Node1&#45;&gt;Node6</title>
<g id="a_edge5_Node000001_Node000006"><a xlink:title=" ">
<path fill="none" stroke="#63b8ff" d="M482.5,-121.54C482.5,-112.96 482.5,-103.61 482.5,-96.16"/>
<polygon fill="#63b8ff" stroke="#63b8ff" points="479,-121.8 482.5,-131.8 486,-121.8 479,-121.8"/>
</a>
</g>
</g>
<!-- Node9 -->
<g id="Node000009" class="node">
<title>Node9</title>
<g id="a_Node000009"><a xlink:href="ws__md__publisher_8cpp.html" target="_top" xlink:title=" ">
<polygon fill="white" stroke="#666666" points="701.5,-96 573.5,-96 573.5,-66 701.5,-66 701.5,-96"/>
<text text-anchor="start" x="581.5" y="-84" font-family="Helvetica,sans-Serif" font-size="10.00">market_data_publisher</text>
<text text-anchor="middle" x="637.5" y="-73" font-family="Helvetica,sans-Serif" font-size="10.00">/ws_md_publisher.cpp</text>
</a>
</g>
</g>
<!-- Node1&#45;&gt;Node9 -->
<g id="edge9_Node000001_Node000009" class="edge">
<title>Node1&#45;&gt;Node9</title>
<g id="a_edge9_Node000001_Node000009"><a xlink:title=" ">
<path fill="none" stroke="#63b8ff" d="M525.96,-128.05C550.52,-117.91 580.77,-105.43 603.56,-96.01"/>
<polygon fill="#63b8ff" stroke="#63b8ff" points="524.42,-124.9 516.52,-131.95 527.09,-131.37 524.42,-124.9"/>
</a>
</g>
</g>
<!-- Node3 -->
<g id="Node000003" class="node">
<title>Node3</title>
<g id="a_Node000003"><a xlink:href="exch__coinbase_8cpp.html" target="_top" xlink:title=" ">
<polygon fill="white" stroke="#666666" points="159,-24.5 0,-24.5 0,-5.5 159,-5.5 159,-24.5"/>
<text text-anchor="middle" x="79.5" y="-12.5" font-family="Helvetica,sans-Serif" font-size="10.00">exchange/exch_coinbase.cpp</text>
</a>
</g>
</g>
<!-- Node2&#45;&gt;Node3 -->
<g id="edge2_Node000002_Node000003" class="edge">
<title>Node2&#45;&gt;Node3</title>
<g id="a_edge2_Node000002_Node000003"><a xlink:title=" ">
<path fill="none" stroke="#63b8ff" d="M260.07,-63.36C212.61,-50.91 149.63,-34.4 111.97,-24.52"/>
<polygon fill="#63b8ff" stroke="#63b8ff" points="259.39,-66.8 269.95,-65.95 261.17,-60.03 259.39,-66.8"/>
</a>
</g>
</g>
<!-- Node4 -->
<g id="Node000004" class="node">
<title>Node4</title>
<g id="a_Node000004"><a xlink:href="coinbase__publisher_8cpp.html" target="_top" xlink:title=" ">
<polygon fill="white" stroke="#666666" points="310,-30 177,-30 177,0 310,0 310,-30"/>
<text text-anchor="start" x="185" y="-18" font-family="Helvetica,sans-Serif" font-size="10.00">market_data_publisher</text>
<text text-anchor="middle" x="243.5" y="-7" font-family="Helvetica,sans-Serif" font-size="10.00">/coinbase_publisher.cpp</text>
</a>
</g>
</g>
<!-- Node2&#45;&gt;Node4 -->
<g id="edge3_Node000002_Node000004" class="edge">
<title>Node2&#45;&gt;Node4</title>
<g id="a_edge3_Node000002_Node000004"><a xlink:title=" ">
<path fill="none" stroke="#63b8ff" d="M297.85,-59.48C285.89,-49.91 271.97,-38.77 261.2,-30.16"/>
<polygon fill="#63b8ff" stroke="#63b8ff" points="295.75,-62.28 305.75,-65.8 300.12,-56.82 295.75,-62.28"/>
</a>
</g>
</g>
<!-- Node5 -->
<g id="Node000005" class="node">
<title>Node5</title>
<g id="a_Node000005"><a xlink:href="market__data__publisher_8cpp.html" target="_top" xlink:title=" ">
<polygon fill="white" stroke="#666666" points="479,-30 328,-30 328,0 479,0 479,-30"/>
<text text-anchor="start" x="336" y="-18" font-family="Helvetica,sans-Serif" font-size="10.00">market_data_publisher</text>
<text text-anchor="middle" x="403.5" y="-7" font-family="Helvetica,sans-Serif" font-size="10.00">/market_data_publisher.cpp</text>
</a>
</g>
</g>
<!-- Node2&#45;&gt;Node5 -->
<g id="edge4_Node000002_Node000005" class="edge">
<title>Node2&#45;&gt;Node5</title>
<g id="a_edge4_Node000002_Node000005"><a xlink:title=" ">
<path fill="none" stroke="#63b8ff" d="M349.15,-59.48C361.11,-49.91 375.03,-38.77 385.8,-30.16"/>
<polygon fill="#63b8ff" stroke="#63b8ff" points="346.88,-56.82 341.25,-65.8 351.25,-62.28 346.88,-56.82"/>
</a>
</g>
</g>
<!-- Node6&#45;&gt;Node5 -->
<g id="edge8_Node000006_Node000005" class="edge">
<title>Node6&#45;&gt;Node5</title>
<g id="a_edge8_Node000006_Node000005"><a xlink:title=" ">
<path fill="none" stroke="#63b8ff" d="M457.17,-59.48C445.36,-49.91 431.61,-38.77 420.98,-30.16"/>
<polygon fill="#63b8ff" stroke="#63b8ff" points="454.99,-62.22 464.97,-65.8 459.4,-56.78 454.99,-62.22"/>
</a>
</g>
</g>
<!-- Node7 -->
<g id="Node000007" class="node">
<title>Node7</title>
<g id="a_Node000007"><a xlink:href="exch__hyperliquid_8cpp.html" target="_top" xlink:title=" ">
<polygon fill="white" stroke="#666666" points="667.5,-24.5 497.5,-24.5 497.5,-5.5 667.5,-5.5 667.5,-24.5"/>
<text text-anchor="middle" x="582.5" y="-12.5" font-family="Helvetica,sans-Serif" font-size="10.00">exchange/exch_hyperliquid.cpp</text>
</a>
</g>
</g>
<!-- Node6&#45;&gt;Node7 -->
<g id="edge6_Node000006_Node000007" class="edge">
<title>Node6&#45;&gt;Node7</title>
<g id="a_edge6_Node000006_Node000007"><a xlink:title=" ">
<path fill="none" stroke="#63b8ff" d="M513.19,-60.36C531.84,-48.42 554.73,-33.77 568.97,-24.66"/>
<polygon fill="#63b8ff" stroke="#63b8ff" points="511.23,-57.46 504.69,-65.8 515,-63.35 511.23,-57.46"/>
</a>
</g>
</g>
<!-- Node8 -->
<g id="Node000008" class="node">
<title>Node8</title>
<g id="a_Node000008"><a xlink:href="hyperliquid__publisher_8cpp.html" target="_top" xlink:title=" ">
<polygon fill="white" stroke="#666666" points="829.5,-30 685.5,-30 685.5,0 829.5,0 829.5,-30"/>
<text text-anchor="start" x="693.5" y="-18" font-family="Helvetica,sans-Serif" font-size="10.00">market_data_publisher</text>
<text text-anchor="middle" x="757.5" y="-7" font-family="Helvetica,sans-Serif" font-size="10.00">/hyperliquid_publisher.cpp</text>
</a>
</g>
</g>
<!-- Node6&#45;&gt;Node8 -->
<g id="edge7_Node000006_Node000008" class="edge">
<title>Node6&#45;&gt;Node8</title>
<g id="a_edge7_Node000006_Node000008"><a xlink:title=" ">
<path fill="none" stroke="#63b8ff" d="M552.76,-63.65C597.44,-53.25 654.7,-39.93 697.29,-30.01"/>
<polygon fill="#63b8ff" stroke="#63b8ff" points="551.8,-60.28 542.85,-65.95 553.38,-67.1 551.8,-60.28"/>
</a>
</g>
</g>
</g>
</svg>

<g id="navigator" transform="translate(0 0)" fill="#404254">
  <rect fill="#f2f5e9" fill-opacity="0.5" stroke="#606060" stroke-width=".5" x="0" y="0" width="60" height="60"/>
  <use id="zoomplus" xlink:href="#zoomPlus" x="17" y="9" onmousedown="handleZoom(evt,'in')"/>
  <use id="zoomminus" xlink:href="#zoomMin" x="42" y="9" onmousedown="handleZoom(evt,'out')"/>
  <use id="reset" xlink:href="#resetDef" x="30" y="36" onmousedown="handleReset()"/>
   <use id="arrowup" xlink:href="#arrowUp" x="0" y="0" onmousedown="handlePan(0,-1)"/>
  <use id="arrowright" xlink:href="#arrowRight" x="0" y="0" onmousedown="handlePan(1,0)"/>
  <use id="arrowdown" xlink:href="#arrowDown" x="0" y="0" onmousedown="handlePan(0,1)"/>
  <use id="arrowleft" xlink:href="#arrowLeft" x="0" y="0" onmousedown="handlePan(-1,0)"/>
</g>
<svg viewBox="0 0 15 15" width="100%" height="30px" preserveAspectRatio="xMaxYMin meet">
 <g id="arrow_out" transform="scale(0.3 0.3)">
  <a xlink:href="ws__md__publisher_8hpp__dep__incl_org.svg" target="_base">
   <rect id="button" ry="5" rx="5" y="6" x="6" height="38" width="38"
        fill="#f2f5e9" fill-opacity="0.5" stroke="#606060" stroke-width="1.0"/>
   <path id="arrow"
     d="M 11.500037,31.436501 C 11.940474,20.09759 22.043105,11.32322 32.158766,21.979434 L 37.068811,17.246167 C 37.068811,17.246167 37.088388,32 37.088388,32 L 22.160133,31.978069 C 22.160133,31.978069 26.997745,27.140456 26.997745,27.140456 C 18.528582,18.264221 13.291696,25.230495 11.500037,31.436501 z"
     style="fill:#404040;"/>
  </a>
 </g>
</svg>

<style type='text/css'>
<![CDATA[
[data-mouse-over-selected='false'] { opacity: 0.7; }
[data-mouse-over-selected='true']  { opacity: 1.0; }
]]>
</style>
<script type="application/ecmascript"><![CDATA[
document.addEventListener('DOMContentLoaded', (event) => {
  highlightEdges();
  highlightAdjacentNodes();
});
]]></script>
</svg>
